<svg width="198" height="40" viewBox="0 0 198 40" fill="none" xmlns="http://www.w3.org/2000/svg">
<g clip-path="url(#clip0)">
<path d="M8.91139 20.4449L4.47709 24.8198L0 20.4449L4.47544 16.031L8.91139 20.4449ZM19.7519 9.75359L27.3893 17.2859L31.8664 12.8736L19.7519 0.964844L7.63739 12.9126L12.1145 17.3248L19.7519 9.75359ZM35.0283 16.031L30.5924 20.4449L35.0678 24.8588L39.5416 20.4449L35.0283 16.031ZM19.7519 31.1362L12.1145 23.5649L7.63739 27.9788L19.7519 39.9249L31.8664 27.9772L27.3893 23.5649L19.7519 31.1362ZM19.7519 24.8214L24.2273 20.4059L19.7519 16.0327L15.2764 20.4449L19.7519 24.8198V24.8214ZM66.8173 25.2759V25.2013C66.8173 22.3474 65.2733 20.9011 62.7665 19.9498C64.3088 19.1138 65.6207 17.742 65.6207 15.346V15.2713C65.6207 11.9224 62.8817 9.75359 58.4836 9.75359H48.4151V31.0989H58.7157C63.6142 31.1362 66.8173 29.1574 66.8173 25.2776V25.2759ZM60.8753 16.1463C60.8753 17.7437 59.5634 18.3898 57.4417 18.3898H53.0453V13.8623H57.7512C59.7576 13.8623 60.8753 14.6609 60.8753 16.07V16.1463ZM62.0719 24.6688C62.0719 26.2662 60.7995 26.9902 58.7141 26.9902H53.0453V22.3085H58.561C60.9921 22.3085 62.0719 23.1851 62.0719 24.6299V24.6688ZM76.8084 31.1362V9.75359H72.0252V31.0989H76.8084V31.1362ZM102.425 31.1362V9.75359H97.7174V22.9189L87.5716 9.75359H83.1735V31.0989H87.881V17.5537L98.3742 31.1362H102.423H102.425ZM128.81 31.1362L119.515 9.63996H115.119L105.821 31.1362H110.721L112.688 26.3425H121.831L123.798 31.1362H128.813H128.81ZM120.131 22.1949H114.383L117.277 15.2713L120.131 22.1949ZM151.535 31.1362V9.75359H146.827V22.9189L136.681 9.75359H132.283V31.0989H136.991V17.5537L147.484 31.1362H151.533H151.535ZM176.108 27.6736L173.061 24.6688C171.362 26.1899 169.858 27.1785 167.351 27.1785C163.648 27.1785 161.063 24.1347 161.063 20.4822V20.3686C161.063 16.7161 163.685 13.7113 167.351 13.7113C169.511 13.7113 171.209 14.6236 172.906 16.1073L175.953 12.6448C173.948 10.7049 171.517 9.33477 167.428 9.33477C160.793 9.33477 156.125 14.3184 156.125 20.3686V20.4449C156.125 26.5697 160.869 31.4398 167.236 31.4398C171.402 31.4787 173.871 30.0323 176.108 27.6736ZM196.439 31.1362V26.9512H184.672V22.4611H194.895V18.2761H184.672V13.9386H196.284V9.75359H179.966V31.0989H196.439V31.1362Z" fill="#5B5B5B"/>
</g>
<defs>
<clipPath id="clip0">
<rect width="197.519" height="38.9601" fill="white" transform="translate(0 0.964844)"/>
</clipPath>
</defs>
</svg>
