<svg width="250" height="38" viewBox="0 0 250 38" fill="none" xmlns="http://www.w3.org/2000/svg">
<g clip-path="url(#clip0)">
<path fill-rule="evenodd" clip-rule="evenodd" d="M46.3561 10.2109V20.7514H35.8442V11.5668C35.8442 10.818 35.2301 10.2109 34.4729 10.2109H30.9248V35.3289C30.9248 36.078 31.5386 36.6851 32.2961 36.6851H35.8442V25.0023H46.3561V35.3289C46.3561 36.078 46.9699 36.6851 47.7274 36.6851H51.2752V11.5668C51.2752 10.818 50.6613 10.2109 49.9038 10.2109H46.3561Z" fill="#A4A4A4"/>
<path fill-rule="evenodd" clip-rule="evenodd" d="M66.9905 16.4531V28.9986C66.9905 30.1384 66.4026 31.2191 65.4047 31.7894C62.6192 33.3812 59.7366 31.3928 59.7366 28.7711V17.809C59.7366 17.0602 59.1228 16.4531 58.3653 16.4531H54.8031V29.2181C54.8031 33.3254 58.2009 36.6858 62.3541 36.6858H64.373C68.5262 36.6858 71.924 33.3254 71.924 29.2181V17.809C71.924 17.0602 71.3101 16.4531 70.553 16.4531H66.9905Z" fill="#A4A4A4"/>
<path fill-rule="evenodd" clip-rule="evenodd" d="M121.708 36.6844H125.256V18.9187C125.256 18.1696 124.642 17.5625 123.885 17.5625H120.337V35.3282C120.337 36.0774 120.951 36.6844 121.708 36.6844Z" fill="#5B5B5B"/>
<path fill-rule="evenodd" clip-rule="evenodd" d="M122.797 15.6371C124.313 15.6371 125.542 14.4215 125.542 12.9219C125.542 11.4224 124.313 10.207 122.797 10.207C121.28 10.207 120.051 11.4224 120.051 12.9219C120.051 14.4215 121.28 15.6371 122.797 15.6371Z" fill="#5B5B5B"/>
<path fill-rule="evenodd" clip-rule="evenodd" d="M89.2354 28.2822C89.2354 30.6958 87.2389 32.3025 84.7983 32.3025C82.3577 32.3025 80.361 30.6958 80.361 28.2822V24.8379C80.361 22.4242 82.3577 20.8176 84.7983 20.8176C87.2389 20.8176 89.2354 22.4242 89.2354 24.8379V28.2822ZM84.7983 16.4375C79.6382 16.4375 75.4165 20.0879 75.4165 25.1908V27.9509C75.4165 33.0538 79.6382 36.6826 84.7983 36.6826C89.9581 36.6826 94.1801 33.0538 94.1801 27.9509V25.1908C94.1801 20.0879 89.9581 16.4375 84.7983 16.4375Z" fill="#A4A4A4"/>
<path fill-rule="evenodd" clip-rule="evenodd" d="M111.565 28.2841C111.565 30.6978 109.568 32.3045 107.128 32.3045C104.687 32.3045 102.69 30.6978 102.69 28.2841V24.8399C102.69 22.4262 104.687 20.8196 107.128 20.8196C109.568 20.8196 111.565 22.4262 111.565 24.8399V28.2841ZM107.128 16.4395C105.515 16.4395 103.994 16.7961 102.665 17.4422V11.5437C102.665 10.7946 102.051 10.1875 101.294 10.1875H97.7457V27.9529C97.7457 33.0561 101.968 36.6845 107.128 36.6845C112.288 36.6845 116.509 33.0561 116.509 27.9529V25.1928C116.509 20.0899 112.288 16.4395 107.128 16.4395Z" fill="#5B5B5B"/>
<path fill-rule="evenodd" clip-rule="evenodd" d="M209.653 28.3651C209.653 30.7537 207.677 32.3439 205.262 32.3439C202.847 32.3439 200.87 30.7537 200.87 28.3651V24.9561C200.87 22.5675 202.847 20.9773 205.262 20.9773C207.677 20.9773 209.653 22.5675 209.653 24.9561V28.3651ZM205.262 16.6424H205.262C203.666 16.6424 202.161 16.995 200.845 17.6343V11.5451C200.845 10.804 200.238 10.2031 199.488 10.2031H195.977V28.0373C195.977 33.0878 200.155 36.6788 205.262 36.6788H205.262C210.369 36.6788 214.547 33.0878 214.547 28.0373V25.3053C214.547 20.2551 210.369 16.6424 205.262 16.6424Z" fill="#A4A4A4"/>
<path fill-rule="evenodd" clip-rule="evenodd" d="M249.072 36.5896V33.5348C249.072 32.8116 248.48 32.2262 247.749 32.2287C247.009 32.2312 246.081 32.2337 245.297 32.2337C243.298 32.2337 243.391 31.2455 243.391 28.6835V11.5329C243.391 10.8113 242.8 10.2266 242.071 10.2266H238.469V29.2692C238.469 33.8809 239.671 36.5896 244.704 36.5896C246.65 36.5896 248.06 36.5351 249.072 36.5899L249.072 36.5896Z" fill="#A4A4A4"/>
<path fill-rule="evenodd" clip-rule="evenodd" d="M154.791 20.8624H145.272V23.4274C145.272 24.1986 145.904 24.8236 146.683 24.8236H151.205V27.0915C151.205 28.7647 150.782 29.9995 149.909 30.8697C148.838 31.9643 147.354 32.5426 145.621 32.5426C144.058 32.5426 142.571 32.0077 141.643 31.1121C140.354 29.8618 140.076 28.504 140.076 23.464C140.076 18.4527 140.354 17.1011 141.643 15.852C142.595 14.9335 144.451 14.2386 145.99 14.2386C151.193 14.2386 152.941 16.065 154.245 17.728H154.415V14.0092C154.415 13.4594 154.15 12.9455 153.716 12.6022C151.536 10.8767 149.363 10.2461 145.621 10.2461C142.599 10.2461 140.014 11.1853 137.94 13.0375C135.077 15.5948 135.077 18.4803 135.078 23.2606V23.6673C135.077 28.4477 135.077 31.3328 137.94 33.8902C139.985 35.7169 142.641 36.6821 145.621 36.6821C148.75 36.6821 151.505 35.6404 153.587 33.6701L153.587 33.6694C155.445 31.9049 156.203 28.5257 156.203 25.0121V22.2582C156.203 21.4874 155.571 20.8624 154.791 20.8624Z" fill="#A4A4A4"/>
<path fill-rule="evenodd" clip-rule="evenodd" d="M170.301 36.5896V33.5348C170.301 32.8116 169.709 32.2262 168.978 32.2287C168.238 32.2312 167.31 32.2337 166.525 32.2337C164.527 32.2337 164.62 31.2455 164.62 28.6835V11.5329C164.62 10.8113 164.029 10.2266 163.3 10.2266H159.698V29.2692C159.698 33.8809 160.9 36.5896 165.934 36.5896C167.878 36.5896 169.289 36.5351 170.3 36.5899L170.301 36.5896Z" fill="#A4A4A4"/>
<path fill-rule="evenodd" clip-rule="evenodd" d="M187.53 28.3672C187.53 30.7558 185.553 32.3461 183.138 32.3461C180.722 32.3461 178.746 30.7558 178.746 28.3672V24.9583C178.746 22.5696 180.722 20.9794 183.138 20.9794C185.553 20.9794 187.53 22.5696 187.53 24.9583V28.3672ZM183.138 16.6445C178.031 16.6445 173.853 20.2572 173.853 25.3074V28.0394C173.853 33.0899 178.031 36.6809 183.138 36.6809C188.245 36.6809 192.423 33.0899 192.423 28.0394V25.3074C192.423 20.2572 188.245 16.6445 183.138 16.6445Z" fill="#A4A4A4"/>
<path fill-rule="evenodd" clip-rule="evenodd" d="M230.079 27.6101V32.6375C229.7 32.7102 229.28 32.7681 228.826 32.8093C227.712 32.913 226.713 32.9319 225.555 32.8276C225.101 32.787 224.682 32.6725 224.309 32.4898C223.949 32.3125 223.655 32.0605 223.41 31.7187C223.178 31.3949 223.06 30.9166 223.06 30.2972C223.06 29.3323 223.407 28.6413 224.124 28.1841C224.886 27.6971 226.041 27.4498 227.556 27.4498C227.965 27.4498 228.463 27.473 229.052 27.5191C229.437 27.5495 229.78 27.5798 230.079 27.6101ZM232.713 18.346C231.254 17.1935 229.121 16.6094 226.372 16.6094C225.35 16.6094 224.276 16.6831 223.179 16.8279C222.299 16.944 221.054 17.1103 220.19 17.3071C219.84 17.387 219.776 17.6591 219.776 17.9851V20.5839C219.776 21.047 219.78 21.4683 220.276 21.3488C221.201 21.126 222.996 20.7328 223.483 20.6532C224.254 20.5279 225.093 20.4647 225.977 20.4647C227.354 20.4647 228.404 20.7083 229.097 21.1872C229.749 21.6386 230.079 22.4976 230.079 23.7402V23.8907C229.834 23.8684 229.565 23.847 229.272 23.8275C228.723 23.791 228.019 23.7724 227.161 23.7724C225.99 23.7724 224.856 23.9037 223.79 24.1628C222.708 24.4266 221.736 24.8339 220.899 25.3748C220.048 25.9264 219.365 26.6263 218.87 27.4572C218.371 28.294 218.118 29.2741 218.118 30.3687C218.118 31.4806 218.334 32.4487 218.762 33.2452C219.192 34.0488 219.811 34.719 220.601 35.2363C221.377 35.7471 222.331 36.1204 223.434 36.3477C224.507 36.5681 225.721 36.6798 227.043 36.6798C228.006 36.6798 234.942 36.5832 234.942 33.3189C234.942 29.5363 234.942 23.8823 234.942 23.8823C234.942 21.3783 234.192 19.5156 232.713 18.346Z" fill="#A4A4A4"/>
<path fill-rule="evenodd" clip-rule="evenodd" d="M16.1562 12.0035C16.1562 6.73155 13.5594 2.19797 11.5842 0.721649C11.5761 0.717005 11.433 0.637447 11.4452 0.848261L11.4424 0.854762C11.2784 11.0336 6.02031 13.7924 3.12957 17.5088C-3.54149 26.085 2.66255 35.4877 8.98022 37.2256C12.5151 38.198 8.16386 35.5051 7.60356 29.8171C6.92587 22.9423 16.1562 17.6945 16.1562 12.0035Z" fill="#A4A4A4"/>
<path fill-rule="evenodd" clip-rule="evenodd" d="M19.2268 15.5133C19.1865 15.486 19.1289 15.4675 19.0891 15.5325C18.9805 16.8138 17.657 19.5547 15.9796 22.0714C10.2901 30.6084 13.5324 34.7237 15.3554 36.934C16.414 38.2172 15.3554 36.934 18.0014 35.6227C18.2086 35.5199 23.164 32.7716 23.7005 26.5097C24.2201 20.4459 20.5374 16.6237 19.2268 15.5133Z" fill="#5B5B5B"/>
</g>
<defs>
<clipPath id="clip0">
<rect width="249.163" height="37.148" fill="white" transform="translate(0.102783 0.53125)"/>
</clipPath>
</defs>
</svg>
