<svg width="173" height="56" viewBox="0 0 173 56" fill="none" xmlns="http://www.w3.org/2000/svg">
<g clip-path="url(#clip0)">
<path d="M89.4785 27.5825C89.4785 29.4335 89.1889 31.1802 88.5835 32.7966C87.9781 34.439 87.1358 35.8468 86.0039 37.0721C84.872 38.2974 83.5033 39.262 81.8449 39.992C80.1866 40.722 78.3177 41.0609 76.2119 41.0609C74.1061 41.0609 72.2372 40.6959 70.5789 39.992C68.9206 39.262 67.5518 38.2974 66.4199 37.0721C65.2881 35.8468 64.4194 34.4129 63.8403 32.7966C63.2612 31.1542 62.9717 29.4335 62.9717 27.5825C62.9717 25.7576 63.2612 24.0109 63.8403 22.3685C64.4194 20.726 65.2881 19.2922 66.4199 18.0669C67.5518 16.8416 68.9469 15.877 70.5789 15.147C72.2372 14.417 74.1061 14.0781 76.2119 14.0781C78.3177 14.0781 80.1866 14.4431 81.8449 15.147C83.5033 15.877 84.872 16.8416 86.0039 18.0669C87.1358 19.2922 87.9781 20.726 88.5835 22.3685C89.1889 24.0109 89.4785 25.7576 89.4785 27.5825ZM76.2382 36.7853C77.528 36.7853 78.6599 36.5507 79.6075 36.0814C80.5815 35.6122 81.3711 34.9604 82.0292 34.1522C82.6873 33.318 83.1611 32.3534 83.4769 31.2324C83.7928 30.1114 83.9507 28.886 83.9507 27.5825C83.9507 26.279 83.7928 25.0537 83.4769 23.9327C83.1611 22.8117 82.6873 21.8471 82.0292 21.0128C81.3711 20.1786 80.5815 19.5529 79.6075 19.0836C78.6336 18.6144 77.528 18.3797 76.2382 18.3797C74.9484 18.3797 73.8166 18.6144 72.869 19.0836C71.895 19.5529 71.1053 20.2046 70.4473 21.0128C69.7892 21.8471 69.3154 22.8117 68.9995 23.9327C68.6837 25.0537 68.5257 26.279 68.5257 27.5825C68.5257 28.886 68.6837 30.1114 68.9995 31.2324C69.3154 32.3534 69.7892 33.318 70.4473 34.1522C71.1053 34.9865 71.895 35.6122 72.869 36.0814C73.8166 36.5507 74.9484 36.7853 76.2382 36.7853ZM92.953 40.6177V14.5474H98.4808V27.0611L107.615 14.5474H114.011L104.324 27.4261L114.669 40.6177H107.825L98.4544 27.8172V40.6177H92.953ZM116.88 14.5474H132.7V18.9011H122.434V25.2101H132.226V29.5378H122.434V36.2639H132.832V40.6177H116.907V14.5474H116.88ZM152.416 14.5474H158.417L149.757 27.5043L158.575 40.6177H152.521L146.835 31.7277L141.15 40.6177H135.095L143.913 27.5043L135.253 14.5474H141.255L146.835 23.3591L152.416 14.5474Z" fill="#5B5B5B"/>
<path d="M28.7525 25.0275C35.7305 25.0275 41.3873 19.4249 41.3873 12.5137C41.3873 5.60259 35.7305 0 28.7525 0C21.7745 0 16.1177 5.60259 16.1177 12.5137C16.1177 19.4249 21.7745 25.0275 28.7525 25.0275Z" fill="#BCBABA"/>
<path d="M28.7525 55.2697C35.7305 55.2697 41.3873 49.6671 41.3873 42.7559C41.3873 35.8448 35.7305 30.2422 28.7525 30.2422C21.7745 30.2422 16.1177 35.8448 16.1177 42.7559C16.1177 49.6671 21.7745 55.2697 28.7525 55.2697Z" fill="#A4A4A4"/>
<path d="M44.0196 40.1486C50.9976 40.1486 56.6544 34.546 56.6544 27.6348C56.6544 20.7237 50.9976 15.1211 44.0196 15.1211C37.0416 15.1211 31.3848 20.7237 31.3848 27.6348C31.3848 34.546 37.0416 40.1486 44.0196 40.1486Z" fill="#CECCCC"/>
<path d="M13.4854 40.1486C20.4634 40.1486 26.1202 34.546 26.1202 27.6348C26.1202 20.7237 20.4634 15.1211 13.4854 15.1211C6.50738 15.1211 0.850586 20.7237 0.850586 27.6348C0.850586 34.546 6.50738 40.1486 13.4854 40.1486Z" fill="#5B5B5B"/>
<path fill-rule="evenodd" clip-rule="evenodd" d="M25.765 24.6756C21.1867 23.5763 17.583 20.0071 16.473 15.4727C21.0513 16.572 24.6551 20.1412 25.765 24.6756Z" fill="#979797"/>
<path fill-rule="evenodd" clip-rule="evenodd" d="M16.473 39.7967C17.583 35.2623 21.1867 31.6931 25.765 30.5938C24.6551 35.1282 21.0513 38.6974 16.473 39.7967Z" fill="#979797"/>
<path fill-rule="evenodd" clip-rule="evenodd" d="M31.74 30.5938C36.3183 31.6931 39.922 35.2623 41.032 39.7967C36.4537 38.6974 32.8499 35.1282 31.74 30.5938Z" fill="#BCBABA"/>
<path fill-rule="evenodd" clip-rule="evenodd" d="M41.032 15.4727C39.922 20.0071 36.3183 23.5763 31.74 24.6756C32.8499 20.1412 36.4537 16.572 41.032 15.4727Z" fill="#5B5B5B"/>
</g>
<defs>
<clipPath id="clip0">
<rect width="172.149" height="55.269" fill="white" transform="translate(0.850586)"/>
</clipPath>
</defs>
</svg>
