<svg width="232" height="28" viewBox="0 0 232 28" fill="none" xmlns="http://www.w3.org/2000/svg">
<g clip-path="url(#clip0)">
<path d="M16.1935 22.7875H5.06523V16.8515H16.1935C18.9743 16.8515 20.3957 18.1847 20.3957 19.9114C20.3957 21.576 19.0053 22.7875 16.1935 22.7875ZM15.8317 13.6726H5.06523V8.67379H15.8317C18.7623 8.67379 19.9124 9.70927 19.9124 11.1279C19.9124 12.43 18.5815 13.6726 15.8317 13.6726ZM18.6745 15.187C23.3625 15.0342 25.0553 12.7019 25.0553 10.1597C25.0527 7.37167 22.8456 5.07031 17.4624 5.07031H0.258301V26.3314H17.9767C22.3908 26.3314 25.6884 24.4857 25.6884 20.5172C25.6884 17.7006 23.8433 15.3087 18.6719 15.187H18.6745ZM30.3326 5.07031V26.3314H35.1473V5.07031H30.3326ZM55.4009 9.09834H65.9969V5.07031H40.0214V9.09834H50.6044V26.3314H55.4113L55.4009 9.09834ZM70.8762 5.07031V26.3314H75.6831V18.0475H86.9639V14.5502H75.6831V8.73592H94.0088V5.07031H70.8762ZM99.1957 5.07031V26.3314H104.003V5.07031H99.1957ZM113.725 10.2477L129.658 26.3288H135.1V5.07031H130.355V20.3955L115.054 5.07031H108.946V26.3314H113.725V10.2477ZM140.047 5.07031V26.3314H163.565V22.759H144.854V16.9137H156.073V13.6131H144.854V8.73592H163.569V5.07031H140.047ZM196.8 5.07031H190.449L182.348 12.5517L174.303 5.07031H167.862L179.171 15.5494L167.439 26.3314H173.791L182.286 18.4876L190.752 26.3314H197.213L185.462 15.5183L196.8 5.07031Z" fill="#A4A4A4"/>
<path d="M230.029 0.926244C229.933 0.884825 220.02 -0.466482 210.22 5.84479C204.137 9.77187 203.331 15.5162 203.609 19.3475C217.862 17.7684 229.706 1.38445 230.029 0.926244ZM204.576 23.6033C205.801 25.7623 215.061 30.6576 223.259 23.9063C231.456 17.1549 230.769 4.87144 230.029 0.926244C229.771 1.49835 220.822 21.1311 204.576 23.6007" fill="#A4A4A4"/>
<path d="M230.029 0.929005C229.934 0.890175 220.02 -0.463721 210.22 5.84756C204.137 9.77463 203.331 15.519 203.609 19.3477C217.862 17.7711 229.706 1.38721 230.029 0.929005Z" fill="#5B5B5B"/>
</g>
<defs>
<clipPath id="clip0">
<rect width="231.042" height="27.1815" fill="white" transform="translate(0 0.410156)"/>
</clipPath>
</defs>
</svg>
