<svg width="186" height="79" viewBox="0 0 186 79" fill="none" xmlns="http://www.w3.org/2000/svg">
<g clip-path="url(#clip0)">
<path d="M130.463 16.8906L126.527 32.1271L99.5415 35.6024L130.463 16.8906Z" fill="#BABABA"/>
<path d="M137.769 78.3507L144.474 50.6773L135.776 47.1055L137.769 78.3507Z" fill="#5B5B5B"/>
<path d="M126.528 32.1094L119.449 46.5897L99.6229 35.649L126.528 32.1094Z" fill="#D5D6D7"/>
<path d="M137.769 78.3514L135.776 47.1061L119.368 46.543L137.769 78.3514Z" fill="#BCBABA"/>
<path d="M126.527 32.1094L135.857 47.0885L119.449 46.5414L126.527 32.1094Z" fill="#5B5B5B"/>
<path d="M130.464 16.8906L152.801 19.6741L126.527 32.1272L130.464 16.8906Z" fill="#ACA9A9"/>
<path d="M177.227 9.95703L163.183 26.175L164.171 11.1798L177.227 9.95703Z" fill="#ACA9A9"/>
<path d="M185.018 0.671875L177.227 9.95537L183.317 10.6955L185.018 0.671875Z" fill="#ACA9A9"/>
<path d="M169.662 18.3683L183.317 10.6776L177.227 9.9375L169.662 18.3683Z" fill="#AFAFAF"/>
<path d="M144.474 50.6739L145.139 32.0586L135.776 47.1021L144.474 50.6739Z" fill="#BCBABA"/>
<path d="M145.139 32.0586L135.776 47.102L126.527 32.1229L145.139 32.0586Z" fill="#5B5B5B"/>
<path d="M152.801 19.6719L145.139 32.0606L126.527 32.125L152.801 19.6719Z" fill="#BABABA"/>
<path d="M145.139 32.0586L144.475 50.6739L161.612 68.0824L145.139 32.0586Z" fill="#D2D2D2"/>
<path d="M170.569 58.35L161.515 36.0664L161.612 68.1001L170.569 58.35Z" fill="#5B5B5B"/>
<path d="M163.183 26.1719L161.515 36.0668L145.139 32.0606L163.183 26.1719Z" fill="#5B5B5B"/>
<path d="M171.477 39.5898L161.515 36.0663L163.135 26.1875L171.477 39.5898Z" fill="#D2D2D2"/>
<path d="M175.121 57.7369L164.269 40.457H170.472L175.121 57.7369Z" fill="#ACA9A9"/>
<path d="M154.841 15.9865L163.183 26.171L164.171 11.1758L154.841 15.9865Z" fill="#BABABA"/>
<path d="M161.515 36.0648L145.139 32.0586L161.612 68.0824L161.515 36.0648Z" fill="#5B5B5B"/>
<path d="M170.57 58.3516L174.182 60.3627L161.645 68.0855L170.57 58.3516Z" fill="#BCBABA"/>
<path d="M175.121 57.5295L161.515 36.0664L170.569 58.3661L175.121 57.5295Z" fill="#BABABA"/>
<path d="M154.841 15.9883L145.122 32.0775L163.167 26.1889L154.841 15.9883Z" fill="#ACA9A9"/>
<path d="M25.5983 63.3092L28.2224 64.6446L30.8626 63.3092V78.3527H25.5983V63.3092ZM25.1934 58.225C25.2474 57.4792 25.5962 56.7849 26.1636 56.2936C26.7311 55.8023 27.4712 55.5538 28.2224 55.6025C28.6038 55.543 28.9936 55.5662 29.3651 55.6706C29.7365 55.7751 30.0808 55.9582 30.3742 56.2074C30.6677 56.4566 30.9032 56.7661 31.0648 57.1143C31.2263 57.4626 31.3099 57.8416 31.3099 58.225C31.3099 58.6085 31.2263 58.9874 31.0648 59.3357C30.9032 59.684 30.6677 59.9934 30.3742 60.2427C30.0808 60.4919 29.7365 60.675 29.3651 60.7794C28.9936 60.8839 28.6038 60.9071 28.2224 60.8476C27.8533 60.8762 27.4822 60.8322 27.1302 60.7183C26.7782 60.6044 26.4523 60.4227 26.171 60.1837C25.8897 59.9446 25.6586 59.6529 25.4909 59.3251C25.3231 58.9973 25.222 58.6399 25.1934 58.2733V58.225Z" fill="#A4A4A4"/>
<path d="M13.2395 55.375V64.1758H5.91801V55.375H0.18396V78.3505H5.91801V69.5175H13.2395V78.3505H18.9735V55.375H13.2395Z" fill="#A4A4A4"/>
<path d="M42.9628 78.3496H37.666V66.9263H35.6089V61.9869H37.666V56.4844H42.9628V61.9869H45.0199V66.9263H42.9628V78.3496Z" fill="#A4A4A4"/>
<path d="M56.1314 73.0732H60.8126C62.6429 73.0732 63.2099 71.963 63.2099 71.0138C63.2099 70.0645 62.6105 68.9865 60.8126 68.9865H56.1314V73.0732ZM56.1314 64.208H60.4076C60.6417 64.2422 60.8802 64.2301 61.1095 64.1725C61.3388 64.115 61.5545 64.013 61.7441 63.8725C61.9337 63.732 62.0935 63.5557 62.2144 63.3538C62.3353 63.1518 62.4148 62.9282 62.4486 62.6956C62.4566 62.61 62.4566 62.5238 62.4486 62.4382C62.4486 61.8268 62.1084 60.6684 60.3914 60.6684H56.1314V64.208ZM59.7759 55.375C66.7572 55.375 67.8748 59.4939 67.8748 61.5855C67.9301 62.5873 67.6819 63.5826 67.1622 64.443C66.6425 65.3033 65.8752 65.9892 64.9592 66.4122C66.0632 66.7414 67.0219 67.4333 67.6782 68.3746C68.3345 69.3159 68.6494 70.4507 68.5714 71.593C68.5714 75.197 66.4818 78.3022 59.5653 78.3022H50.3973V55.375H59.7759Z" fill="#5B5B5B"/>
<path d="M83.3602 78.3505H77.6261V60.6523H71.5844V55.375H89.402V60.604H83.3602V78.3505Z" fill="#5B5B5B"/>
<path d="M113.278 59.0116L109.568 62.3421C108.133 61.0886 106.279 60.4116 104.369 60.4435C103.563 60.4243 102.762 60.5632 102.011 60.8522C101.259 61.1411 100.573 61.5746 99.9905 62.1276C99.4082 62.6806 98.9414 63.3424 98.617 64.075C98.2927 64.8075 98.117 65.5964 98.1002 66.3965C98.084 66.557 98.084 66.7187 98.1002 66.8792C98.052 67.6769 98.1625 68.4762 98.4254 69.2315C98.6884 69.9867 99.0986 70.6831 99.6326 71.2807C100.167 71.8784 100.814 72.3657 101.538 72.7147C102.261 73.0638 103.047 73.2677 103.85 73.3149H104.369C106.274 73.3648 108.129 72.7048 109.568 71.4646L113.278 74.7951C112.13 75.9962 110.749 76.9524 109.217 77.6053C107.685 78.2581 106.036 78.5939 104.369 78.5922C101.25 78.5922 98.2588 77.3615 96.0535 75.171C93.8481 72.9804 92.6091 70.0093 92.6091 66.9114C92.6091 63.8135 93.8481 60.8424 96.0535 58.6518C98.2588 56.4613 101.25 55.2306 104.369 55.2306C106.035 55.222 107.686 55.5532 109.218 56.2035C110.75 56.8539 112.132 57.8096 113.278 59.0116Z" fill="#5B5B5B"/>
</g>
<defs>
<clipPath id="clip0">
<rect width="184.834" height="77.9202" fill="white" transform="translate(0.18396 0.671875)"/>
</clipPath>
</defs>
</svg>
