<svg width="154" height="36" viewBox="0 0 154 36" fill="none" xmlns="http://www.w3.org/2000/svg">
<path d="M0.159424 35.3484H132.846V31.8828H0.159424V35.3484Z" fill="#A4A4A4"/>
<path d="M142.043 35.3445H153.437V31.8789H142.043V35.3445Z" fill="#A4A4A4"/>
<path d="M26.0122 26.6278H30.7638V8.79029H26.0122V26.6278ZM25.5524 3.64289C25.5524 2.82746 25.8078 2.16492 26.3698 1.60431C26.8808 1.09467 27.5961 0.839844 28.4135 0.839844C29.2821 0.839844 29.9463 1.09467 30.4572 1.60431C30.9681 2.11395 31.2747 2.77649 31.2747 3.64289C31.2747 4.45832 31.0192 5.12086 30.4572 5.68146C29.9463 6.19111 29.231 6.44593 28.4135 6.44593C27.5961 6.44593 26.9319 6.19111 26.3698 5.68146C25.8078 5.17182 25.5524 4.45832 25.5524 3.64289Z" fill="#333433"/>
<path d="M41.6975 8.73725H46.5512V12.3048H41.6975V20.8668C41.6975 21.6313 41.9018 22.2428 42.3617 22.7015C42.8215 23.1602 43.3835 23.415 44.1499 23.415C44.8141 23.415 45.5805 23.3131 46.398 23.1092L47.0111 26.6258C45.6316 26.9825 44.3032 27.1864 43.0259 27.1864C42.1573 27.1864 41.3398 27.0335 40.6245 26.7787C39.9092 26.5238 39.2961 26.1161 38.7341 25.6065C38.2232 25.0968 37.8144 24.4853 37.5079 23.7718C37.2013 23.0583 37.0991 22.2938 37.0991 21.4274V12.4067H33.8292V8.83918H37.0991V3.58984H41.6464V8.73725H41.6975Z" fill="#333433"/>
<path d="M49.3613 13.6837C49.3613 12.9192 49.5146 12.1547 49.8722 11.4922C50.2298 10.8297 50.6897 10.269 51.2517 9.7594C51.8648 9.30072 52.5801 8.89301 53.3976 8.63818C54.2151 8.38336 55.1858 8.23047 56.1566 8.23047C57.1784 8.23047 58.2514 8.3324 59.3243 8.53626C60.3972 8.74011 61.5213 9.0459 62.6453 9.45362L61.6235 12.8173C60.7549 12.4605 59.8863 12.2057 59.0178 12.0018C58.1492 11.798 57.3317 11.6961 56.5653 11.6961C55.7478 11.6961 55.0836 11.8489 54.5727 12.2057C54.0618 12.5624 53.8574 13.0211 53.8574 13.6327C53.8574 14.1933 54.1129 14.601 54.5727 14.8558C55.0325 15.1107 55.5946 15.3655 56.3098 15.5693C57.0251 15.7732 57.7404 15.9771 58.5579 16.13C59.3754 16.3338 60.1418 16.6396 60.806 17.0473C61.5213 17.455 62.0833 18.0156 62.5431 18.6782C63.003 19.3917 63.2584 20.309 63.2584 21.4303C63.2584 22.2457 63.1051 22.9592 62.7475 23.6727C62.3898 24.3352 61.93 24.9468 61.3169 25.4565C60.7038 25.9661 59.9885 26.3228 59.0688 26.6286C58.2003 26.8835 57.2295 27.0363 56.2077 27.0363C54.0107 27.0363 51.6604 26.5777 49.208 25.6093L50.1788 22.2967C52.2735 23.1631 54.164 23.5708 55.85 23.5708C56.7186 23.5708 57.4339 23.3669 57.9448 23.0102C58.4557 22.6534 58.7112 22.1438 58.7112 21.4812C58.7112 20.9206 58.4557 20.5129 57.9959 20.2071C57.5361 19.9013 56.974 19.6465 56.2588 19.4426C55.5435 19.2388 54.8282 19.0349 54.0107 18.8311C53.1932 18.6272 52.4779 18.3214 51.7626 17.9137C51.0473 17.506 50.4853 16.9964 50.0255 16.3338C49.5657 15.7222 49.3613 14.8049 49.3613 13.6837Z" fill="#333433"/>
<path d="M72.8126 8.73725H77.6664V12.3048H72.8126V20.8668C72.8126 21.6313 73.0169 22.2428 73.4768 22.7015C73.9366 23.1602 74.4986 23.415 75.265 23.415C75.9292 23.415 76.6956 23.3131 77.5131 23.1092L78.1262 26.6258C76.7467 26.9825 75.4183 27.1864 74.141 27.1864C73.2724 27.1864 72.4549 27.0335 71.7396 26.7787C71.0243 26.5238 70.4112 26.1161 69.8492 25.6065C69.2872 25.0968 68.9296 24.4853 68.623 23.7718C68.3164 23.0583 68.2143 22.2938 68.2143 21.4274V12.4067H64.9443V8.83918H68.2143V3.58984H72.7615V8.73725H72.8126Z" fill="#333433"/>
<path d="M85.177 21.1751C85.177 21.8886 85.4835 22.5001 86.0455 23.0098C86.6587 23.5194 87.3739 23.7743 88.2425 23.7743C89.4687 23.7743 90.4395 23.3665 91.2059 22.6021C91.9723 21.8376 92.3299 20.8183 92.3299 19.5952V18.5249C91.4613 18.2701 90.4906 18.1682 89.4176 18.1682C88.0892 18.1682 87.0674 18.423 86.301 18.9836C85.5857 19.4932 85.177 20.2577 85.177 21.1751ZM80.7319 21.4299C80.7319 19.5442 81.4472 18.0662 82.8778 17.0469C84.3084 16.0277 86.301 15.518 88.9067 15.518C89.4687 15.518 90.0308 15.569 90.5928 15.6199C91.1548 15.6709 91.7679 15.7728 92.3299 15.8748V14.9064C92.3299 13.9891 92.0234 13.2246 91.3592 12.664C90.695 12.1034 89.8264 11.7976 88.7024 11.7976C86.9141 11.7976 84.9726 12.2053 82.8778 13.0717L81.7027 9.81C84.2573 8.79071 86.7608 8.33203 89.2133 8.33203C90.3373 8.33203 91.3081 8.48492 92.2277 8.84168C93.1474 9.14746 93.9138 9.60614 94.578 10.2177C95.2422 10.7783 95.7531 11.4918 96.1108 12.3073C96.4684 13.1227 96.6728 14.04 96.6728 15.0084V22.2963C96.6728 22.704 96.775 23.0098 96.9793 23.2136C97.1837 23.4685 97.4902 23.5704 97.899 23.5704C98.1034 23.5704 98.2566 23.5704 98.461 23.5194C98.6143 23.5194 98.7676 23.4685 98.8187 23.4685L99.1252 26.8831C98.7165 26.9341 98.3588 27.036 97.9501 27.0869C97.5413 27.1379 97.1326 27.1379 96.6728 27.1379C95.7531 27.1379 94.9867 26.9341 94.3225 26.4754C93.6583 26.0677 93.1985 25.4561 92.8919 24.6916C92.1255 25.4561 91.2059 26.0677 90.2351 26.4754C89.2133 26.8831 88.1914 27.0869 87.0674 27.0869C86.1477 27.0869 85.2792 26.9341 84.5128 26.6792C83.7464 26.4244 83.0822 26.0167 82.5202 25.507C81.9582 24.9974 81.5494 24.4368 81.2429 23.7233C80.8852 23.0098 80.7319 22.2453 80.7319 21.4299Z" fill="#333433"/>
<path d="M101.783 8.68915H105.461L106.023 11.1354C106.738 10.2181 107.556 9.50458 108.578 8.99494C109.6 8.48529 110.673 8.23047 111.848 8.23047C113.176 8.23047 114.3 8.53626 115.322 9.09686C116.293 9.65747 117.059 10.4729 117.57 11.4922C118.388 10.4219 119.358 9.60651 120.431 9.0459C121.504 8.48529 122.679 8.23047 124.008 8.23047C124.978 8.23047 125.847 8.38336 126.665 8.68915C127.482 8.99494 128.197 9.45362 128.759 10.0652C129.372 10.6258 129.832 11.3393 130.139 12.1547C130.445 12.9702 130.65 13.8366 130.65 14.8049V26.6286H126V15.5693C126 14.5501 125.694 13.7346 125.03 13.0721C124.365 12.4605 123.548 12.1038 122.526 12.1038C121.351 12.1038 120.38 12.5115 119.614 13.3269C118.847 14.1423 118.49 15.1616 118.49 16.4867V26.6286H113.84V15.5693C113.84 14.5501 113.534 13.7346 112.921 13.0721C112.308 12.4605 111.49 12.1038 110.468 12.1038C109.242 12.1038 108.271 12.5115 107.505 13.3269C106.739 14.1423 106.381 15.1616 106.381 16.4867V26.6286H101.731V8.68915H101.783Z" fill="#333433"/>
<path d="M148.327 17.6079C148.327 16.7925 148.225 16.028 147.969 15.3145C147.765 14.601 147.407 13.9895 146.999 13.5308C146.59 13.0211 146.13 12.6644 145.568 12.3586C145.006 12.0528 144.393 11.9509 143.729 11.9509C142.502 11.9509 141.532 12.3586 140.714 13.225C139.948 14.0404 139.539 15.1107 139.539 16.4357V18.8311C139.539 19.4936 139.641 20.1052 139.846 20.6148C140.05 21.1754 140.357 21.6341 140.714 22.0418C141.072 22.4495 141.532 22.7553 142.043 22.9592C142.554 23.1631 143.116 23.265 143.729 23.265C144.393 23.265 145.006 23.1121 145.568 22.8573C146.13 22.6024 146.59 22.1947 146.999 21.6851C147.407 21.1754 147.714 20.5639 147.969 19.9013C148.225 19.2388 148.327 18.4234 148.327 17.6079ZM135.043 8.68915H138.722L139.284 10.9825C139.948 10.1162 140.714 9.45362 141.685 8.94397C142.656 8.48529 143.729 8.23047 144.904 8.23047C146.079 8.23047 147.152 8.48529 148.174 8.94397C149.144 9.40265 150.013 10.0652 150.728 10.8806C151.444 11.6961 152.006 12.6644 152.414 13.8366C152.823 14.9578 153.027 16.2319 153.027 17.6079C153.027 18.984 152.823 20.2581 152.414 21.3793C152.006 22.5005 151.444 23.5198 150.728 24.3352C150.013 25.1507 149.144 25.8132 148.174 26.2719C147.203 26.7306 146.079 26.9854 144.904 26.9854C143.831 26.9854 142.809 26.7815 141.94 26.3738C141.021 25.9661 140.254 25.3545 139.641 24.5391V35.3945H135.043V8.68915Z" fill="#333433"/>
<path d="M15.7935 22.0363C15.0782 22.7498 14.1074 23.0556 12.8812 23.0556H7.15885V15.6657H12.8812C14.0563 15.6657 15.0271 16.0225 15.7935 16.685C16.5088 17.3476 16.8664 18.2649 16.8664 19.3352C16.9175 20.4564 16.5598 21.3738 15.7935 22.0363ZM7.15885 5.6767H12.4214C13.4943 5.6767 14.3629 5.98249 15.0782 6.64502C15.7935 7.2566 16.1 8.12299 16.1 9.14228C16.1 10.1616 15.7424 10.977 15.0782 11.5886C14.3629 12.2002 13.4943 12.5059 12.4214 12.5059H7.15885V5.6767ZM20.494 16.1244C19.7276 15.0542 18.7057 14.2897 17.4284 13.831C18.4503 13.3723 19.2166 12.7098 19.8298 11.7924C20.4429 10.8751 20.7494 9.80482 20.7494 8.58167C20.7494 7.61335 20.5451 6.74696 20.1874 5.98249C19.8298 5.16706 19.2677 4.50452 18.6035 3.94391C17.9393 3.3833 17.1219 2.92462 16.2022 2.61884C15.2825 2.31305 14.2607 2.16016 13.1366 2.16016H0.15918V5.42188C2.15178 5.42188 3.73565 7.05274 3.73565 9.04036C3.73565 11.028 2.15178 12.6588 0.15918 12.6588V15.6148C2.15178 15.6148 3.73565 17.2456 3.73565 19.2332V19.7939C3.73565 21.7815 2.15178 23.4123 0.15918 23.4123V26.6741H13.6987C14.8738 26.6741 15.8956 26.5212 16.8664 26.1644C17.8372 25.8586 18.6546 25.3999 19.3699 24.7884C20.0852 24.1768 20.6472 23.4633 21.0049 22.6479C21.4136 21.8324 21.618 20.9151 21.618 19.8958C21.618 18.4178 21.2603 17.1947 20.494 16.1244Z" fill="#333433"/>
</svg>
