<svg width="100" height="100" viewBox="0 0 100 100" fill="none" xmlns="http://www.w3.org/2000/svg">
<path d="M49.9999 0C22.3857 0 0 22.3857 0 49.9999C0 77.6141 22.3857 99.9998 49.9999 99.9998C77.6141 99.9998 99.9998 77.6141 99.9998 49.9999C99.9705 22.3981 77.6019 0.0295061 49.9999 0ZM49.9999 92.857C26.3305 92.857 7.14278 73.6692 7.14278 49.9999C7.14278 26.3305 26.3305 7.14278 49.9999 7.14278C73.6692 7.14278 92.857 26.3305 92.857 49.9999C92.8315 73.6588 73.6588 92.8315 49.9999 92.857Z" fill="#28A745"/>
<path d="M77.0524 29.6159C75.6684 28.2791 73.4742 28.2791 72.0904 29.6159L38.901 62.805L27.1402 51.0442C25.77 49.6254 23.5089 49.5863 22.0903 50.9565C20.6715 52.3268 20.6323 54.5879 22.0026 56.0064C22.0313 56.0362 22.0606 56.0655 22.0903 56.0941L36.3761 70.3799C37.7706 71.7742 40.0315 71.7742 41.426 70.3799L77.1403 34.6656C78.5106 33.247 78.4712 30.9861 77.0524 29.6159Z" fill="#28A745"/>
</svg>
