<svg width="114" height="114" viewBox="0 0 114 114" fill="none" xmlns="http://www.w3.org/2000/svg">
<g filter="url(#filter0_d)">
<rect x="13" y="13" width="81" height="81" rx="4" fill="white"/>
</g>
<path d="M34.0321 66.337C33.8988 66.337 33.8238 66.3353 33.8104 66.3353C33.3504 66.322 32.9887 65.9387 33.0004 65.4787C33.0137 65.0188 33.3837 64.6888 33.8571 64.6688C34.1338 64.6655 62.4397 65.1688 68.8599 40.2963C68.9749 39.8497 69.4282 39.5847 69.8749 39.698C70.3199 39.813 70.5883 40.268 70.4733 40.7129C64.0297 65.6821 36.7789 66.337 34.0321 66.337Z" fill="#3355FF"/>
<path d="M72.1683 45.666C71.88 45.666 71.6 45.5176 71.445 45.2493L69.3616 41.6408L65.7531 43.7242C65.3548 43.9526 64.8447 43.8176 64.6147 43.4192C64.3847 43.0209 64.5214 42.5108 64.9197 42.2808L69.2499 39.7808C69.6466 39.5491 70.1566 39.6858 70.3883 40.0858L72.8883 44.4159C73.1183 44.8143 72.9817 45.3243 72.5833 45.5543C72.4533 45.631 72.31 45.666 72.1683 45.666Z" fill="#3355FF"/>
<path d="M68.8348 72.9989C68.3748 72.9989 68.0015 72.6256 68.0015 72.1657V50.5012C68.0015 50.0413 68.3748 49.668 68.8348 49.668C69.2948 49.668 69.6682 50.0413 69.6682 50.5012V72.1657C69.6682 72.6256 69.2948 72.9989 68.8348 72.9989Z" fill="#3355FF"/>
<path d="M58.8346 73.0014C58.3746 73.0014 58.0012 72.6281 58.0012 72.1682V62.1692C58.0012 61.7092 58.3746 61.3359 58.8346 61.3359C59.2946 61.3359 59.6679 61.7092 59.6679 62.1692V72.1682C59.6679 72.6281 59.2946 73.0014 58.8346 73.0014Z" fill="#3355FF"/>
<path d="M48.8342 73.0028C48.3742 73.0028 48.0009 72.6295 48.0009 72.1695V67.1693C48.0009 66.7093 48.3742 66.3359 48.8342 66.3359C49.2942 66.3359 49.6676 66.7093 49.6676 67.1693V72.1695C49.6676 72.6295 49.2942 73.0028 48.8342 73.0028Z" fill="#3355FF"/>
<path d="M38.8338 73.0027C38.3738 73.0027 38.0005 72.6294 38.0005 72.1694V69.6693C38.0005 69.2093 38.3738 68.8359 38.8338 68.8359C39.2939 68.8359 39.6672 69.2093 39.6672 69.6693V72.1694C39.6672 72.6294 39.2939 73.0027 38.8338 73.0027Z" fill="#3355FF"/>
<path d="M45.0974 52.7319C44.884 52.7319 44.6707 52.6503 44.5073 52.4886L38.5138 46.4942C38.2005 46.1809 38.1871 45.676 38.4838 45.3477L43.394 39.8966C46.8824 35.8686 52.4159 33.0923 57.1528 33.0039C57.3494 32.9773 57.5978 33.0889 57.7578 33.2472C57.9178 33.4089 58.0045 33.6272 58.0011 33.8522C57.9128 38.5884 55.136 44.1211 51.0942 47.6191L45.6541 52.5186C45.4974 52.6619 45.2974 52.7319 45.0974 52.7319ZM40.2522 45.876L45.129 50.7521L49.9925 46.3709C53.4526 43.3762 55.8961 38.8017 56.2827 34.7221C52.2026 35.1087 47.6291 37.5518 44.644 40.9998L40.2522 45.876Z" fill="#3355FF"/>
<path d="M47.3408 56.6876C47.2658 56.6876 47.1891 56.6777 47.1141 56.656C46.8241 56.5727 46.6008 56.3427 46.5291 56.0477L45.3508 51.1315C45.2441 50.6849 45.5208 50.235 45.9674 50.1267C46.4191 50.0217 46.8658 50.2966 46.9725 50.7433L47.7542 54.0079C49.2025 51.7432 49.4909 48.8451 49.5209 47.1503C49.5292 46.6903 49.9259 46.3304 50.3692 46.332C50.8293 46.3387 51.1959 46.7203 51.1876 47.1786C51.1176 51.1215 49.9609 54.4112 47.9292 56.4427C47.7708 56.601 47.5575 56.6876 47.3408 56.6876Z" fill="#3355FF"/>
<path d="M40.069 45.6779C40.004 45.6779 39.939 45.6713 39.874 45.6546L34.9571 44.4762C34.6638 44.4062 34.4305 44.1845 34.3488 43.8929C34.2671 43.6029 34.3488 43.2912 34.5605 43.0778C36.5922 41.0461 39.8823 39.8894 43.8274 39.8194C44.2891 39.7777 44.6675 40.1777 44.6741 40.6378C44.6808 41.0978 44.3175 41.4778 43.8558 41.4861C42.159 41.5161 39.2623 41.8045 36.9972 43.2528L40.2623 44.0345C40.709 44.1412 40.9857 44.5912 40.879 45.0396C40.7857 45.4212 40.4457 45.6779 40.069 45.6779Z" fill="#3355FF"/>
<path d="M33.8337 58.0055C33.6154 58.0055 33.4037 57.9189 33.2437 57.7622C33.027 57.5456 32.947 57.2273 33.0354 56.934C33.3104 56.0141 34.7404 51.3712 35.8605 50.2513C37.2088 48.9014 39.4039 48.8998 40.7573 50.2513C42.1073 51.6012 42.1073 53.7976 40.7573 55.1475C39.6389 56.2674 34.9938 57.6955 34.0737 57.9705C33.9937 57.9938 33.9137 58.0055 33.8337 58.0055ZM38.3089 50.9046C37.8488 50.9046 37.3888 51.0796 37.0388 51.4295C36.5655 51.9028 35.7521 53.9893 35.1154 55.8907C37.0172 55.2541 39.1056 54.4409 39.5772 53.9693C40.2773 53.2693 40.2773 52.1294 39.5772 51.4312C39.2272 51.0796 38.7672 50.9046 38.3089 50.9046Z" fill="#3355FF"/>
<defs>
<filter id="filter0_d" x="3" y="3" width="111" height="111" filterUnits="userSpaceOnUse" color-interpolation-filters="sRGB">
<feFlood flood-opacity="0" result="BackgroundImageFix"/>
<feColorMatrix in="SourceAlpha" type="matrix" values="0 0 0 0 0 0 0 0 0 0 0 0 0 0 0 0 0 0 127 0" result="hardAlpha"/>
<feOffset dx="5" dy="5"/>
<feGaussianBlur stdDeviation="7.5"/>
<feColorMatrix type="matrix" values="0 0 0 0 0 0 0 0 0 0 0 0 0 0 0 0 0 0 0.1 0"/>
<feBlend mode="normal" in2="BackgroundImageFix" result="effect1_dropShadow"/>
<feBlend mode="normal" in="SourceGraphic" in2="effect1_dropShadow" result="shape"/>
</filter>
</defs>
</svg>
