<svg width="111" height="111" viewBox="0 0 111 111" fill="none" xmlns="http://www.w3.org/2000/svg">
<g filter="url(#filter0_d)">
<rect x="10" y="10" width="81" height="81" rx="4" fill="white"/>
</g>
<path d="M64.2424 29.95C61.1503 29.95 58.7212 32.9024 58.7212 36.561C58.7212 40.2203 61.1886 43.1271 64.2424 43.1271C67.2963 43.1271 69.8014 40.1754 69.8014 36.5161C69.8014 32.8565 67.3338 29.95 64.2424 29.95ZM64.2424 41.589C61.9007 41.589 59.9909 39.3281 59.9909 36.5161C59.9909 33.7049 61.9377 31.488 64.2424 31.488C66.5841 31.488 68.4939 33.749 68.4939 36.561C68.4939 39.3724 66.5847 41.589 64.2424 41.589Z" fill="#3355FF" stroke="#3355FF" stroke-width="0.1"/>
<mask id="path-3-outside-1" maskUnits="userSpaceOnUse" x="61.4688" y="31.293" width="5" height="10" fill="black">
<rect fill="white" x="61.4688" y="31.293" width="5" height="10"/>
<path d="M65.9779 37.5508C65.9401 37.4159 65.9401 37.3261 65.8647 37.1913C65.8269 37.1014 65.7892 36.9666 65.7137 36.8767C65.6383 36.7868 65.6005 36.6969 65.5251 36.6071C65.4496 36.5172 65.3742 36.4273 65.261 36.3824C65.1855 36.2925 65.0723 36.2476 64.9968 36.2026C64.8836 36.1577 64.8082 36.0678 64.695 36.0229C64.5818 35.9779 64.4686 35.933 64.3931 35.888C64.3554 35.888 64.2799 35.8431 64.2422 35.7982C64.2044 35.7532 64.129 35.7532 64.0912 35.7083C64.0535 35.6634 63.978 35.6634 63.9403 35.6184C63.9026 35.5735 63.8649 35.5285 63.8271 35.4836C63.7894 35.4387 63.7517 35.3937 63.7517 35.3038C63.7139 35.2589 63.7139 35.169 63.7139 35.1241C63.7139 35.0342 63.7139 34.9893 63.7139 34.8994C63.7139 34.8545 63.7517 34.7646 63.7517 34.7196C63.7894 34.6747 63.7894 34.5848 63.8271 34.5399C63.8649 34.495 63.9026 34.45 63.9403 34.4051C63.978 34.3601 64.0535 34.3152 64.129 34.3152C64.2044 34.2703 64.2422 34.2703 64.3176 34.2703C64.3554 34.2703 64.3931 34.2703 64.4308 34.2703C64.4686 34.2703 64.5063 34.2703 64.544 34.2703C64.6195 34.2703 64.6572 34.2703 64.7327 34.3152C64.8082 34.3152 64.8836 34.3601 64.9214 34.3601C64.9591 34.3601 65.0346 34.4051 65.0723 34.4051C65.1478 34.4051 65.1855 34.45 65.2232 34.45L65.4119 34.5399L65.4496 34.2703L65.5251 33.5512V33.3715L65.3741 33.3266C65.3364 33.3266 65.261 33.2816 65.2232 33.2816C65.1855 33.2816 65.1478 33.2367 65.0723 33.2367C65.0346 33.2367 64.9591 33.1917 64.8836 33.1917C64.8082 33.1917 64.7704 33.1468 64.695 33.1468H64.6572V32.5177V32.293H64.4686H63.9403H63.7517V32.5177V33.1917H63.7139C63.6007 33.2367 63.4875 33.2816 63.3743 33.3715C63.2611 33.4164 63.1857 33.5063 63.1102 33.5962C63.0347 33.6861 62.9593 33.7759 62.8838 33.9108C62.8083 34.0006 62.7706 34.1354 62.7329 34.2703C62.6951 34.4051 62.6574 34.5399 62.6197 34.6747C62.5819 34.8095 62.5819 34.9893 62.5819 35.1241C62.5819 35.2589 62.5819 35.3488 62.6197 35.4836C62.6574 35.6184 62.6574 35.7083 62.7329 35.8431C62.7706 35.933 62.8461 36.0678 62.8838 36.1577C62.9593 36.2476 62.997 36.3374 63.0725 36.4273C63.1479 36.5172 63.2234 36.6071 63.3366 36.652C63.4121 36.7419 63.5253 36.7868 63.6007 36.8317C63.7139 36.8767 63.8271 36.9666 63.9026 37.0115C64.0158 37.0564 64.129 37.1014 64.2044 37.1463C64.2422 37.1463 64.3176 37.1913 64.3554 37.2362C64.3931 37.2811 64.4686 37.2811 64.5063 37.3261C64.544 37.371 64.5818 37.4159 64.6195 37.4159C64.6572 37.4609 64.695 37.5058 64.7327 37.5508C64.7704 37.5957 64.7704 37.6406 64.8082 37.7305C64.8082 37.7755 64.8459 37.8653 64.8459 37.9552C64.8459 38.0451 64.8459 38.09 64.8459 38.1799C64.8459 38.2248 64.8082 38.3147 64.7704 38.3597C64.7327 38.4046 64.695 38.4495 64.6572 38.4945C64.6195 38.5394 64.5818 38.5843 64.5063 38.6293C64.4686 38.6742 64.3931 38.6742 64.3554 38.7192C64.3176 38.7192 64.2422 38.7641 64.1667 38.7641C64.129 38.7641 64.0912 38.7641 64.0158 38.7641C63.978 38.7641 63.9026 38.7641 63.8649 38.7641C63.7894 38.7641 63.7139 38.7641 63.6762 38.7641C63.6007 38.7641 63.5253 38.7192 63.4875 38.7192C63.4121 38.7192 63.3366 38.6742 63.2611 38.6293C63.1857 38.5843 63.1102 38.5843 63.0347 38.5394C62.997 38.5394 62.9593 38.4945 62.9215 38.4945C62.8838 38.4945 62.8461 38.4495 62.8083 38.4495L62.5819 38.3147L62.5442 38.6293L62.4688 39.4382V39.573L62.5819 39.6179C62.7329 39.573 62.8083 39.6179 62.9215 39.6629C62.997 39.7078 63.1102 39.7527 63.1857 39.7527C63.2611 39.7977 63.3743 39.7977 63.4875 39.8426C63.6007 39.8876 63.6762 39.8876 63.7894 39.8876H63.8649V40.5616V40.7863H64.0535H64.5818H64.7704V40.5616V39.8426H64.8082C64.9214 39.7977 65.0346 39.7527 65.1478 39.6629C65.261 39.6179 65.3364 39.5281 65.4496 39.4382C65.5251 39.3483 65.6005 39.2584 65.676 39.1236C65.7515 39.0337 65.7892 38.8989 65.8647 38.7641C65.9024 38.6293 65.9401 38.4945 65.9779 38.3597C66.0156 38.2248 66.0156 38.09 66.0156 37.9103C66.0156 37.7755 66.0156 37.6856 65.9779 37.5508Z"/>
</mask>
<path d="M65.9779 37.5508C65.9401 37.4159 65.9401 37.3261 65.8647 37.1913C65.8269 37.1014 65.7892 36.9666 65.7137 36.8767C65.6383 36.7868 65.6005 36.6969 65.5251 36.6071C65.4496 36.5172 65.3742 36.4273 65.261 36.3824C65.1855 36.2925 65.0723 36.2476 64.9968 36.2026C64.8836 36.1577 64.8082 36.0678 64.695 36.0229C64.5818 35.9779 64.4686 35.933 64.3931 35.888C64.3554 35.888 64.2799 35.8431 64.2422 35.7982C64.2044 35.7532 64.129 35.7532 64.0912 35.7083C64.0535 35.6634 63.978 35.6634 63.9403 35.6184C63.9026 35.5735 63.8649 35.5285 63.8271 35.4836C63.7894 35.4387 63.7517 35.3937 63.7517 35.3038C63.7139 35.2589 63.7139 35.169 63.7139 35.1241C63.7139 35.0342 63.7139 34.9893 63.7139 34.8994C63.7139 34.8545 63.7517 34.7646 63.7517 34.7196C63.7894 34.6747 63.7894 34.5848 63.8271 34.5399C63.8649 34.495 63.9026 34.45 63.9403 34.4051C63.978 34.3601 64.0535 34.3152 64.129 34.3152C64.2044 34.2703 64.2422 34.2703 64.3176 34.2703C64.3554 34.2703 64.3931 34.2703 64.4308 34.2703C64.4686 34.2703 64.5063 34.2703 64.544 34.2703C64.6195 34.2703 64.6572 34.2703 64.7327 34.3152C64.8082 34.3152 64.8836 34.3601 64.9214 34.3601C64.9591 34.3601 65.0346 34.4051 65.0723 34.4051C65.1478 34.4051 65.1855 34.45 65.2232 34.45L65.4119 34.5399L65.4496 34.2703L65.5251 33.5512V33.3715L65.3741 33.3266C65.3364 33.3266 65.261 33.2816 65.2232 33.2816C65.1855 33.2816 65.1478 33.2367 65.0723 33.2367C65.0346 33.2367 64.9591 33.1917 64.8836 33.1917C64.8082 33.1917 64.7704 33.1468 64.695 33.1468H64.6572V32.5177V32.293H64.4686H63.9403H63.7517V32.5177V33.1917H63.7139C63.6007 33.2367 63.4875 33.2816 63.3743 33.3715C63.2611 33.4164 63.1857 33.5063 63.1102 33.5962C63.0347 33.6861 62.9593 33.7759 62.8838 33.9108C62.8083 34.0006 62.7706 34.1354 62.7329 34.2703C62.6951 34.4051 62.6574 34.5399 62.6197 34.6747C62.5819 34.8095 62.5819 34.9893 62.5819 35.1241C62.5819 35.2589 62.5819 35.3488 62.6197 35.4836C62.6574 35.6184 62.6574 35.7083 62.7329 35.8431C62.7706 35.933 62.8461 36.0678 62.8838 36.1577C62.9593 36.2476 62.997 36.3374 63.0725 36.4273C63.1479 36.5172 63.2234 36.6071 63.3366 36.652C63.4121 36.7419 63.5253 36.7868 63.6007 36.8317C63.7139 36.8767 63.8271 36.9666 63.9026 37.0115C64.0158 37.0564 64.129 37.1014 64.2044 37.1463C64.2422 37.1463 64.3176 37.1913 64.3554 37.2362C64.3931 37.2811 64.4686 37.2811 64.5063 37.3261C64.544 37.371 64.5818 37.4159 64.6195 37.4159C64.6572 37.4609 64.695 37.5058 64.7327 37.5508C64.7704 37.5957 64.7704 37.6406 64.8082 37.7305C64.8082 37.7755 64.8459 37.8653 64.8459 37.9552C64.8459 38.0451 64.8459 38.09 64.8459 38.1799C64.8459 38.2248 64.8082 38.3147 64.7704 38.3597C64.7327 38.4046 64.695 38.4495 64.6572 38.4945C64.6195 38.5394 64.5818 38.5843 64.5063 38.6293C64.4686 38.6742 64.3931 38.6742 64.3554 38.7192C64.3176 38.7192 64.2422 38.7641 64.1667 38.7641C64.129 38.7641 64.0912 38.7641 64.0158 38.7641C63.978 38.7641 63.9026 38.7641 63.8649 38.7641C63.7894 38.7641 63.7139 38.7641 63.6762 38.7641C63.6007 38.7641 63.5253 38.7192 63.4875 38.7192C63.4121 38.7192 63.3366 38.6742 63.2611 38.6293C63.1857 38.5843 63.1102 38.5843 63.0347 38.5394C62.997 38.5394 62.9593 38.4945 62.9215 38.4945C62.8838 38.4945 62.8461 38.4495 62.8083 38.4495L62.5819 38.3147L62.5442 38.6293L62.4688 39.4382V39.573L62.5819 39.6179C62.7329 39.573 62.8083 39.6179 62.9215 39.6629C62.997 39.7078 63.1102 39.7527 63.1857 39.7527C63.2611 39.7977 63.3743 39.7977 63.4875 39.8426C63.6007 39.8876 63.6762 39.8876 63.7894 39.8876H63.8649V40.5616V40.7863H64.0535H64.5818H64.7704V40.5616V39.8426H64.8082C64.9214 39.7977 65.0346 39.7527 65.1478 39.6629C65.261 39.6179 65.3364 39.5281 65.4496 39.4382C65.5251 39.3483 65.6005 39.2584 65.676 39.1236C65.7515 39.0337 65.7892 38.8989 65.8647 38.7641C65.9024 38.6293 65.9401 38.4945 65.9779 38.3597C66.0156 38.2248 66.0156 38.09 66.0156 37.9103C66.0156 37.7755 66.0156 37.6856 65.9779 37.5508Z" fill="#3355FF"/>
<path d="M65.9779 37.5508C65.9401 37.4159 65.9401 37.3261 65.8647 37.1913C65.8269 37.1014 65.7892 36.9666 65.7137 36.8767C65.6383 36.7868 65.6005 36.6969 65.5251 36.6071C65.4496 36.5172 65.3742 36.4273 65.261 36.3824C65.1855 36.2925 65.0723 36.2476 64.9968 36.2026C64.8836 36.1577 64.8082 36.0678 64.695 36.0229C64.5818 35.9779 64.4686 35.933 64.3931 35.888C64.3554 35.888 64.2799 35.8431 64.2422 35.7982C64.2044 35.7532 64.129 35.7532 64.0912 35.7083C64.0535 35.6634 63.978 35.6634 63.9403 35.6184C63.9026 35.5735 63.8649 35.5285 63.8271 35.4836C63.7894 35.4387 63.7517 35.3937 63.7517 35.3038C63.7139 35.2589 63.7139 35.169 63.7139 35.1241C63.7139 35.0342 63.7139 34.9893 63.7139 34.8994C63.7139 34.8545 63.7517 34.7646 63.7517 34.7196C63.7894 34.6747 63.7894 34.5848 63.8271 34.5399C63.8649 34.495 63.9026 34.45 63.9403 34.4051C63.978 34.3601 64.0535 34.3152 64.129 34.3152C64.2044 34.2703 64.2422 34.2703 64.3176 34.2703C64.3554 34.2703 64.3931 34.2703 64.4308 34.2703C64.4686 34.2703 64.5063 34.2703 64.544 34.2703C64.6195 34.2703 64.6572 34.2703 64.7327 34.3152C64.8082 34.3152 64.8836 34.3601 64.9214 34.3601C64.9591 34.3601 65.0346 34.4051 65.0723 34.4051C65.1478 34.4051 65.1855 34.45 65.2232 34.45L65.4119 34.5399L65.4496 34.2703L65.5251 33.5512V33.3715L65.3741 33.3266C65.3364 33.3266 65.261 33.2816 65.2232 33.2816C65.1855 33.2816 65.1478 33.2367 65.0723 33.2367C65.0346 33.2367 64.9591 33.1917 64.8836 33.1917C64.8082 33.1917 64.7704 33.1468 64.695 33.1468H64.6572V32.5177V32.293H64.4686H63.9403H63.7517V32.5177V33.1917H63.7139C63.6007 33.2367 63.4875 33.2816 63.3743 33.3715C63.2611 33.4164 63.1857 33.5063 63.1102 33.5962C63.0347 33.6861 62.9593 33.7759 62.8838 33.9108C62.8083 34.0006 62.7706 34.1354 62.7329 34.2703C62.6951 34.4051 62.6574 34.5399 62.6197 34.6747C62.5819 34.8095 62.5819 34.9893 62.5819 35.1241C62.5819 35.2589 62.5819 35.3488 62.6197 35.4836C62.6574 35.6184 62.6574 35.7083 62.7329 35.8431C62.7706 35.933 62.8461 36.0678 62.8838 36.1577C62.9593 36.2476 62.997 36.3374 63.0725 36.4273C63.1479 36.5172 63.2234 36.6071 63.3366 36.652C63.4121 36.7419 63.5253 36.7868 63.6007 36.8317C63.7139 36.8767 63.8271 36.9666 63.9026 37.0115C64.0158 37.0564 64.129 37.1014 64.2044 37.1463C64.2422 37.1463 64.3176 37.1913 64.3554 37.2362C64.3931 37.2811 64.4686 37.2811 64.5063 37.3261C64.544 37.371 64.5818 37.4159 64.6195 37.4159C64.6572 37.4609 64.695 37.5058 64.7327 37.5508C64.7704 37.5957 64.7704 37.6406 64.8082 37.7305C64.8082 37.7755 64.8459 37.8653 64.8459 37.9552C64.8459 38.0451 64.8459 38.09 64.8459 38.1799C64.8459 38.2248 64.8082 38.3147 64.7704 38.3597C64.7327 38.4046 64.695 38.4495 64.6572 38.4945C64.6195 38.5394 64.5818 38.5843 64.5063 38.6293C64.4686 38.6742 64.3931 38.6742 64.3554 38.7192C64.3176 38.7192 64.2422 38.7641 64.1667 38.7641C64.129 38.7641 64.0912 38.7641 64.0158 38.7641C63.978 38.7641 63.9026 38.7641 63.8649 38.7641C63.7894 38.7641 63.7139 38.7641 63.6762 38.7641C63.6007 38.7641 63.5253 38.7192 63.4875 38.7192C63.4121 38.7192 63.3366 38.6742 63.2611 38.6293C63.1857 38.5843 63.1102 38.5843 63.0347 38.5394C62.997 38.5394 62.9593 38.4945 62.9215 38.4945C62.8838 38.4945 62.8461 38.4495 62.8083 38.4495L62.5819 38.3147L62.5442 38.6293L62.4688 39.4382V39.573L62.5819 39.6179C62.7329 39.573 62.8083 39.6179 62.9215 39.6629C62.997 39.7078 63.1102 39.7527 63.1857 39.7527C63.2611 39.7977 63.3743 39.7977 63.4875 39.8426C63.6007 39.8876 63.6762 39.8876 63.7894 39.8876H63.8649V40.5616V40.7863H64.0535H64.5818H64.7704V40.5616V39.8426H64.8082C64.9214 39.7977 65.0346 39.7527 65.1478 39.6629C65.261 39.6179 65.3364 39.5281 65.4496 39.4382C65.5251 39.3483 65.6005 39.2584 65.676 39.1236C65.7515 39.0337 65.7892 38.8989 65.8647 38.7641C65.9024 38.6293 65.9401 38.4945 65.9779 38.3597C66.0156 38.2248 66.0156 38.09 66.0156 37.9103C66.0156 37.7755 66.0156 37.6856 65.9779 37.5508Z" stroke="#3355FF" stroke-width="0.2" mask="url(#path-3-outside-1)"/>
<path d="M60.7011 43.7547L60.701 43.7546L60.6991 43.7565L54.6117 49.5295L46.7569 45.6354L46.7562 45.635C46.5477 45.5357 46.3003 45.5859 46.1359 45.7323L37.6843 52.9221C37.4015 53.1626 37.3222 53.638 37.5219 53.973C37.6442 54.2144 37.8504 54.3134 38.0563 54.3134C38.1836 54.3134 38.3074 54.2627 38.4269 54.1677L38.427 54.1678L38.4283 54.1667L46.5912 47.2225L54.4855 51.1176L54.4861 51.1179C54.5912 51.168 54.7149 51.1796 54.8313 51.1615C54.9477 51.1434 55.0608 51.0951 55.1446 51.0202L55.1447 51.0202L55.1457 51.0193L61.5215 44.9984C61.6656 44.8752 61.7446 44.6822 61.7643 44.483C61.784 44.283 61.7449 44.0697 61.6442 43.9019C61.4384 43.5587 60.9869 43.5116 60.7011 43.7547Z" fill="#3355FF" stroke="#3355FF" stroke-width="0.1"/>
<path d="M70.4305 68.5145H67.6883V47.7581C67.6883 47.3346 67.4096 46.9891 67.0345 46.9891H61.4879C61.1128 46.9891 60.8341 47.3346 60.8341 47.7581V68.5145H58.8966V54.9482C58.8966 54.5247 58.6179 54.1792 58.2429 54.1792H52.6585C52.2834 54.1792 52.0047 54.5247 52.0047 54.9482V68.5145H50.0672V53.8697C50.0672 53.4462 49.7885 53.1007 49.4135 53.1007H43.8668C43.4917 53.1007 43.2131 53.4462 43.2131 53.8697V68.5145H41.2755V58.0939C41.2755 57.6704 40.9968 57.3249 40.6218 57.3249H35.0374C34.6623 57.3249 34.3837 57.6704 34.3837 58.0939V68.5145H31.6037C31.2287 68.5145 30.95 68.86 30.95 69.2835C30.95 69.7071 31.2287 70.0526 31.6037 70.0526H34.9996H40.5463H43.8668H49.4135H52.6585H58.2051H61.4501H66.9968H70.3927C70.7671 70.0526 71.0454 69.7083 71.0464 69.2859C71.0851 68.8595 70.8048 68.5145 70.4305 68.5145ZM39.9303 68.5145H35.6911V58.8629H39.9303V68.5145ZM48.7597 68.5145H44.5205V54.6387H48.7597V68.5145ZM57.5514 68.5145H53.3122V55.7172H57.5514V68.5145ZM66.3808 68.5145H62.1416V48.5271H66.3808V68.5145Z" fill="#3355FF" stroke="#3355FF" stroke-width="0.1"/>
<defs>
<filter id="filter0_d" x="0" y="0" width="111" height="111" filterUnits="userSpaceOnUse" color-interpolation-filters="sRGB">
<feFlood flood-opacity="0" result="BackgroundImageFix"/>
<feColorMatrix in="SourceAlpha" type="matrix" values="0 0 0 0 0 0 0 0 0 0 0 0 0 0 0 0 0 0 127 0" result="hardAlpha"/>
<feOffset dx="5" dy="5"/>
<feGaussianBlur stdDeviation="7.5"/>
<feColorMatrix type="matrix" values="0 0 0 0 0 0 0 0 0 0 0 0 0 0 0 0 0 0 0.1 0"/>
<feBlend mode="normal" in2="BackgroundImageFix" result="effect1_dropShadow"/>
<feBlend mode="normal" in="SourceGraphic" in2="effect1_dropShadow" result="shape"/>
</filter>
</defs>
</svg>
