<svg width="111" height="111" viewBox="0 0 111 111" fill="none" xmlns="http://www.w3.org/2000/svg">
<g filter="url(#filter0_d)">
<rect x="10" y="10" width="81" height="81" rx="4" fill="white"/>
</g>
<path d="M40.375 51.625H42.25V52.875H40.375V51.625Z" fill="#3355FF"/>
<path d="M44.75 54.75H46.625V56H44.75V54.75Z" fill="#3355FF"/>
<path d="M40.375 54.75H43.5V56H40.375V54.75Z" fill="#3355FF"/>
<path d="M35.375 54.75H39.125V56H35.375V54.75Z" fill="#3355FF"/>
<path d="M39.125 57.875H46.625V59.125H39.125V57.875Z" fill="#3355FF"/>
<path d="M35.375 57.875H37.875V59.125H35.375V57.875Z" fill="#3355FF"/>
<path d="M42.875 61H46.625V62.25H42.875V61Z" fill="#3355FF"/>
<path d="M35.375 61H41.625V62.25H35.375V61Z" fill="#3355FF"/>
<path d="M39.125 64.125H42.875V65.375H39.125V64.125Z" fill="#3355FF"/>
<path d="M35.375 64.125H37.875V65.375H35.375V64.125Z" fill="#3355FF"/>
<path d="M68.5 49.75C68.5 49.5842 68.4342 49.4253 68.317 49.3081C68.1997 49.1909 68.0408 49.125 67.875 49.125H64.125C63.9592 49.125 63.8003 49.1909 63.6831 49.3081C63.5659 49.4253 63.5 49.5842 63.5 49.75V52.875H60.375C60.2092 52.875 60.0503 52.9409 59.9331 53.0581C59.8159 53.1753 59.75 53.3342 59.75 53.5V56.625H56.625C56.4592 56.625 56.3003 56.6909 56.1831 56.8081C56.0659 56.9253 56 57.0842 56 57.25V60.375H52.875C52.7092 60.375 52.5503 60.4409 52.4331 60.5581C52.3159 60.6753 52.25 60.8342 52.25 61V64.75H47.7675C47.6201 64.333 47.3299 63.9815 46.9484 63.7577C46.5669 63.5339 46.1186 63.4522 45.6827 63.527C45.2467 63.6018 44.8513 63.8283 44.5662 64.1665C44.2811 64.5046 44.1247 64.9327 44.1247 65.375C44.1247 65.8173 44.2811 66.2454 44.5662 66.5835C44.8513 66.9217 45.2467 67.1482 45.6827 67.223C46.1186 67.2978 46.5669 67.2161 46.9484 66.9923C47.3299 66.7685 47.6201 66.417 47.7675 66H48.5V67.875C48.4998 68.0407 48.4339 68.1996 48.3167 68.3167C48.1996 68.4339 48.0407 68.4998 47.875 68.5H34.125C33.9593 68.4998 33.8004 68.4339 33.6833 68.3167C33.5661 68.1996 33.5002 68.0407 33.5 67.875V53.5H36.625C37.1221 53.4994 37.5987 53.3017 37.9502 52.9502C38.3017 52.5987 38.4994 52.1221 38.5 51.625V48.5H47.875C48.0407 48.5002 48.1996 48.5661 48.3167 48.6833C48.4339 48.8004 48.4998 48.9593 48.5 49.125V49.75H49.75V49.125C49.7494 48.6279 49.5517 48.1513 49.2002 47.7998C48.8487 47.4483 48.3721 47.2506 47.875 47.25H38.3927C38.1464 47.2493 37.9024 47.2975 37.6748 47.3918C37.4472 47.4861 37.2406 47.6246 37.0669 47.7992L32.7992 52.0669C32.6245 52.2406 32.486 52.4473 32.3918 52.6749C32.2975 52.9024 32.2493 53.1464 32.25 53.3928V67.875C32.2506 68.3721 32.4483 68.8487 32.7998 69.2002C33.1513 69.5517 33.6279 69.7494 34.125 69.75H47.875C48.3721 69.7494 48.8487 69.5517 49.2002 69.2002C49.5517 68.8487 49.7494 68.3721 49.75 67.875V66H69.75V64.75H68.5V49.75ZM37.25 49.3839V51.625C37.2498 51.7907 37.1839 51.9496 37.0667 52.0667C36.9496 52.1839 36.7907 52.2498 36.625 52.25H34.3839L37.25 49.3839ZM46 66C45.8764 66 45.7556 65.9634 45.6528 65.8947C45.55 65.826 45.4699 65.7284 45.4226 65.6142C45.3753 65.5 45.3629 65.3743 45.387 65.2531C45.4111 65.1318 45.4707 65.0205 45.5581 64.9331C45.6455 64.8457 45.7568 64.7861 45.8781 64.762C45.9993 64.7379 46.125 64.7503 46.2392 64.7976C46.3534 64.8449 46.451 64.925 46.5197 65.0278C46.5884 65.1306 46.625 65.2514 46.625 65.375C46.6248 65.5407 46.5589 65.6996 46.4417 65.8167C46.3246 65.9339 46.1657 65.9998 46 66ZM53.5 61.625H56V64.75H53.5V61.625ZM57.25 57.875H59.75V64.75H57.25V57.875ZM61 54.125H63.5V64.75H61V54.125ZM64.75 64.75V50.375H67.25V64.75H64.75Z" fill="#3355FF"/>
<path d="M34.125 47.8758C34.4417 47.8759 34.7533 47.7957 35.0307 47.6428C35.308 47.4898 35.5421 47.2691 35.7111 47.0012C35.88 46.7332 35.9783 46.4269 35.9968 46.1107C36.0153 45.7945 35.9534 45.4788 35.8168 45.193L37.6921 43.3176C37.9293 43.431 38.1877 43.4932 38.4505 43.5002C38.7133 43.5072 38.9747 43.4588 39.2175 43.3582C39.4604 43.2576 39.6794 43.107 39.8603 42.9162C40.0412 42.7254 40.1799 42.4987 40.2675 42.2508H42.9825C43.121 42.6427 43.3857 42.9774 43.7351 43.2024C44.0845 43.4273 44.4988 43.5298 44.9128 43.4938C45.3268 43.4577 45.7171 43.285 46.0223 43.003C46.3275 42.721 46.5304 42.3455 46.5989 41.9356L50.1286 38.9103C50.5202 39.1158 50.9718 39.1763 51.4037 39.0811C51.8356 38.9859 52.22 38.7411 52.4888 38.3899C52.7577 38.0388 52.8938 37.6039 52.873 37.1621C52.8523 36.7203 52.676 36.3001 52.3754 35.9756C52.0748 35.6512 51.6692 35.4435 51.2303 35.3892C50.7914 35.3349 50.3474 35.4375 49.9768 35.6788C49.6062 35.9202 49.3328 36.2848 49.205 36.7082C49.0772 37.1316 49.1032 37.5866 49.2783 37.9927L46.2882 40.5556C46.0915 40.2723 45.8203 40.0489 45.5047 39.9098C45.189 39.7708 44.8411 39.7216 44.4993 39.7676C44.1574 39.8136 43.8349 39.9532 43.5673 40.1707C43.2997 40.3883 43.0973 40.6756 42.9825 41.0008H40.2675C40.1827 40.7608 40.0499 40.5406 39.8772 40.3535C39.7045 40.1665 39.4955 40.0166 39.2629 39.9129C39.0304 39.8093 38.7792 39.7541 38.5247 39.7508C38.2701 39.7474 38.0175 39.7959 37.7823 39.8933C37.5471 39.9907 37.3342 40.135 37.1566 40.3174C36.979 40.4998 36.8404 40.7164 36.7493 40.9541C36.6581 41.1918 36.6164 41.4456 36.6265 41.7C36.6366 41.9544 36.6985 42.204 36.8082 42.4337L34.9329 44.3091C34.6789 44.1878 34.401 44.1252 34.1195 44.126C33.8381 44.1269 33.5605 44.191 33.3073 44.3137C33.054 44.4364 32.8316 44.6146 32.6566 44.835C32.4816 45.0554 32.3585 45.3123 32.2963 45.5868C32.2342 45.8612 32.2346 46.1462 32.2975 46.4204C32.3605 46.6947 32.4844 46.9513 32.66 47.1712C32.8357 47.391 33.0586 47.5686 33.3122 47.6905C33.5658 47.8125 33.8436 47.8759 34.125 47.8758ZM51 36.6258C51.1236 36.6258 51.2444 36.6625 51.3472 36.7312C51.45 36.7998 51.5301 36.8975 51.5774 37.0117C51.6247 37.1259 51.6371 37.2515 51.613 37.3728C51.5889 37.494 51.5293 37.6054 51.4419 37.6928C51.3545 37.7802 51.2432 37.8397 51.1219 37.8638C51.0007 37.8879 50.875 37.8756 50.7608 37.8283C50.6466 37.781 50.549 37.7009 50.4803 37.5981C50.4117 37.4953 50.375 37.3745 50.375 37.2508C50.3752 37.0851 50.4411 36.9263 50.5583 36.8091C50.6754 36.6919 50.8343 36.626 51 36.6258ZM44.75 41.0008C44.8736 41.0008 44.9944 41.0375 45.0972 41.1062C45.2 41.1748 45.2801 41.2725 45.3274 41.3867C45.3747 41.5009 45.3871 41.6265 45.363 41.7478C45.3389 41.869 45.2793 41.9804 45.1919 42.0678C45.1045 42.1552 44.9932 42.2147 44.8719 42.2388C44.7507 42.2629 44.625 42.2506 44.5108 42.2033C44.3966 42.156 44.299 42.0759 44.2303 41.9731C44.1617 41.8703 44.125 41.7495 44.125 41.6258C44.1252 41.4601 44.1911 41.3013 44.3083 41.1841C44.4254 41.0669 44.5843 41.001 44.75 41.0008ZM38.5 41.0008C38.6236 41.0008 38.7445 41.0375 38.8472 41.1062C38.95 41.1748 39.0301 41.2725 39.0774 41.3867C39.1247 41.5009 39.1371 41.6265 39.113 41.7478C39.0889 41.869 39.0293 41.9804 38.9419 42.0678C38.8545 42.1552 38.7432 42.2147 38.6219 42.2388C38.5007 42.2629 38.375 42.2506 38.2608 42.2033C38.1466 42.156 38.049 42.0759 37.9803 41.9731C37.9117 41.8703 37.875 41.7495 37.875 41.6258C37.8752 41.4601 37.9411 41.3013 38.0583 41.1841C38.1754 41.0669 38.3343 41.001 38.5 41.0008ZM34.125 45.3758C34.2486 45.3758 34.3694 45.4125 34.4722 45.4812C34.575 45.5498 34.6551 45.6475 34.7024 45.7617C34.7497 45.8759 34.7621 46.0015 34.738 46.1228C34.7139 46.244 34.6543 46.3554 34.5669 46.4428C34.4795 46.5302 34.3682 46.5897 34.2469 46.6138C34.1257 46.6379 34 46.6256 33.8858 46.5783C33.7716 46.531 33.674 46.4509 33.6053 46.3481C33.5367 46.2453 33.5 46.1245 33.5 46.0008C33.5002 45.8351 33.5661 45.6763 33.6833 45.5591C33.8004 45.4419 33.9593 45.376 34.125 45.3758Z" fill="#3355FF"/>
<path d="M56.7473 46.8711L52.6162 51.0023H47.1425C46.9951 50.5853 46.705 50.2339 46.3235 50.0101C45.942 49.7863 45.4936 49.7045 45.0577 49.7793C44.6218 49.8541 44.2263 50.0806 43.9412 50.4188C43.6561 50.757 43.4998 51.185 43.4998 51.6273C43.4998 52.0696 43.6561 52.4977 43.9412 52.8359C44.2263 53.174 44.6218 53.4005 45.0577 53.4753C45.4936 53.5501 45.942 53.4684 46.3235 53.2446C46.705 53.0208 46.9951 52.6693 47.1425 52.2523H48.5V63.5023H49.75V52.2523H52.875C53.0408 52.2523 53.1998 52.1865 53.317 52.0693L57.8278 47.5585C59.6874 48.5455 61.8569 48.7743 63.8815 48.1969C65.9061 47.6196 67.6286 46.2809 68.6879 44.4616C69.7472 42.6422 70.0612 40.4834 69.5639 38.4377C69.0666 36.3919 67.7967 34.6181 66.0204 33.4881C64.2441 32.358 62.0993 31.9594 60.0356 32.3759C57.9719 32.7923 56.1496 33.9915 54.9505 35.7219C53.7515 37.4524 53.2688 39.5799 53.6038 41.6584C53.9388 43.7369 55.0653 45.605 56.7473 46.8711L56.7473 46.8711ZM45.375 52.2523C45.2514 52.2523 45.1306 52.2157 45.0278 52.147C44.925 52.0783 44.8449 51.9807 44.7976 51.8665C44.7503 51.7523 44.7379 51.6266 44.762 51.5054C44.7862 51.3842 44.8457 51.2728 44.9331 51.1854C45.0205 51.098 45.1319 51.0385 45.2531 51.0143C45.3743 50.9902 45.5 51.0026 45.6142 51.0499C45.7284 51.0972 45.826 51.1773 45.8947 51.2801C45.9634 51.3829 46 51.5037 46 51.6273C45.9999 51.793 45.9339 51.9519 45.8168 52.0691C45.6996 52.1862 45.5407 52.2521 45.375 52.2523ZM66.6384 45.0765L63.0168 41.0023H68.4713C68.3327 42.527 67.6873 43.9614 66.6384 45.0765ZM68.4713 39.7523H62.25V33.531C63.8499 33.6793 65.3476 34.3824 66.4838 35.5186C67.6199 36.6547 68.323 38.1524 68.4713 39.7523ZM61 33.531V40.3773C61 40.5304 61.0564 40.6781 61.1584 40.7921L61.1579 40.7926L65.7046 45.9076C64.8512 46.5372 63.8637 46.9608 62.8194 47.1453C61.7751 47.3297 60.7023 47.2701 59.6848 46.9709C58.6674 46.6718 57.733 46.1413 56.9547 45.421C56.1764 44.7006 55.5754 43.81 55.1986 42.8187C54.8218 41.8274 54.6794 40.7624 54.7827 39.7069C54.886 38.6515 55.2321 37.6342 55.7939 36.7348C56.3557 35.8354 57.1181 35.0781 58.0212 34.5223C58.9244 33.9665 59.9439 33.6273 61 33.531Z" fill="#3355FF"/>
<defs>
<filter id="filter0_d" x="0" y="0" width="111" height="111" filterUnits="userSpaceOnUse" color-interpolation-filters="sRGB">
<feFlood flood-opacity="0" result="BackgroundImageFix"/>
<feColorMatrix in="SourceAlpha" type="matrix" values="0 0 0 0 0 0 0 0 0 0 0 0 0 0 0 0 0 0 127 0" result="hardAlpha"/>
<feOffset dx="5" dy="5"/>
<feGaussianBlur stdDeviation="7.5"/>
<feColorMatrix type="matrix" values="0 0 0 0 0 0 0 0 0 0 0 0 0 0 0 0 0 0 0.1 0"/>
<feBlend mode="normal" in2="BackgroundImageFix" result="effect1_dropShadow"/>
<feBlend mode="normal" in="SourceGraphic" in2="effect1_dropShadow" result="shape"/>
</filter>
</defs>
</svg>
