<svg width="111" height="111" viewBox="0 0 111 111" fill="none" xmlns="http://www.w3.org/2000/svg">
<g filter="url(#filter0_d)">
<rect x="10" y="10" width="81" height="81" rx="4" fill="white"/>
</g>
<path d="M70.9822 32.94C70.9498 31.8589 70.0642 30.9995 68.9831 31H32.9991C31.895 31 31 31.8954 31 33V69C31 70.1046 31.895 71 32.9991 71H68.9831C70.0872 71 70.9822 70.1046 70.9822 69C70.9822 24.62 71.0222 34.3333 70.9822 32.94ZM69.6495 32.94L66.5442 43.46L62.3194 41.8733V32.3333L68.9831 32.3333C69.3313 32.3322 69.6216 32.5995 69.6495 32.9467V32.94ZM60.9867 42.2133L56.0755 55.72L51.6575 50.7467V32.3333H60.9867V42.2133ZM50.3247 49.1C46.3265 44.1267 46.2332 43.9733 46.1466 43.88C46.021 43.7445 45.8448 43.6673 45.6601 43.6667C45.4869 43.6667 46.4131 43.6667 42.9947 43.6667C42.6266 43.6667 42.3283 43.9651 42.3283 44.3333C42.3283 44.7015 42.6266 45 42.9947 45H44.5473L40.9956 51.6667V32.3333H50.3247V49.1ZM40.9956 54.5L45.7734 45.54L50.3247 51.2333V69.6667H40.9956V54.5ZM51.6575 52.7533C56.1422 57.8 55.8423 57.5 56.0355 57.5933C56.2288 57.6867 56.1422 57.6667 58.9876 57.6667C59.3556 57.6667 59.6539 57.3682 59.6539 57C59.6539 56.6318 59.3556 56.3333 58.9876 56.3333H57.275L60.9867 46.12V69.6667H51.6575V52.7533ZM32.9991 32.3333H39.6628V43.6667H38.3301C37.962 43.6667 37.6637 43.9651 37.6637 44.3333C37.6637 44.7015 37.962 45 38.3301 45H39.6628V54.1467L35.8712 60.4733L32.3327 61.9867V33C32.3327 32.6318 32.6311 32.3333 32.9991 32.3333ZM32.3327 69V63.44L36.5908 61.6133C36.8707 61.4933 36.6775 61.7133 39.6628 56.74V69.6667H32.9991C32.6311 69.6667 32.3327 69.3682 32.3327 69ZM68.9831 69.6667H62.3194V57.6667H63.6522C64.0202 57.6667 64.3185 57.3682 64.3185 57C64.3185 56.6318 64.0202 56.3333 63.6522 56.3333H62.3194V43.2933L66.7508 44.96C66.9277 45.0339 67.1279 45.0279 67.3001 44.9437C67.4724 44.8594 67.6 44.7051 67.6504 44.52L69.6495 37.6267V69C69.6495 69.3682 69.3511 69.6667 68.9831 69.6667Z" fill="#3355FF"/>
<path d="M56.7952 59.1933C56.67 59.0671 56.4997 58.9961 56.322 58.9961C56.1444 58.9961 55.974 59.0671 55.8489 59.1933L53.8498 61.1933C53.6808 61.3624 53.6148 61.6089 53.6766 61.8399C53.7385 62.0709 53.9188 62.2513 54.1497 62.3132C54.3806 62.3751 54.627 62.3091 54.796 62.14L55.6557 61.2733V65.6666C55.6557 66.0348 55.954 66.3333 56.322 66.3333C56.6901 66.3333 56.9884 66.0348 56.9884 65.6666V61.2733L57.848 62.14C58.1093 62.4014 58.533 62.4014 58.7943 62.14C59.0556 61.8785 59.0556 61.4547 58.7943 61.1933L56.7952 59.1933Z" fill="#3355FF"/>
<path d="M45.187 42.14C45.3122 42.2662 45.4825 42.3372 45.6602 42.3372C45.8378 42.3372 46.0082 42.2662 46.1333 42.14L48.1324 40.14C48.3014 39.9709 48.3674 39.7244 48.3056 39.4934C48.2437 39.2624 48.0633 39.082 47.8324 39.0201C47.6015 38.9582 47.3552 39.0242 47.1861 39.1933L46.3265 40.06V35.6667C46.3265 35.2985 46.0282 35 45.6602 35C45.2921 35 44.9938 35.2985 44.9938 35.6667V40.06L44.1342 39.1933C43.8729 38.9319 43.4492 38.9319 43.1879 39.1933C42.9266 39.4547 42.9266 39.8786 43.1879 40.14L45.187 42.14Z" fill="#3355FF"/>
<path d="M67.6504 56.332H66.3176C65.9496 56.332 65.6512 56.6304 65.6512 56.9984C65.6512 57.3664 65.9496 57.6648 66.3176 57.6648H67.6504C68.0184 57.6648 68.3167 57.3664 68.3167 56.9984C68.3167 56.6304 68.0184 56.332 67.6504 56.332Z" fill="#3355FF"/>
<path d="M34.3319 44.9968H35.6646C36.0327 44.9968 36.331 44.6985 36.331 44.3304C36.331 43.9624 36.0327 43.6641 35.6646 43.6641H34.3319C33.9639 43.6641 33.6655 43.9624 33.6655 44.3304C33.6655 44.6985 33.9639 44.9968 34.3319 44.9968Z" fill="#3355FF"/>
<defs>
<filter id="filter0_d" x="0" y="0" width="111" height="111" filterUnits="userSpaceOnUse" color-interpolation-filters="sRGB">
<feFlood flood-opacity="0" result="BackgroundImageFix"/>
<feColorMatrix in="SourceAlpha" type="matrix" values="0 0 0 0 0 0 0 0 0 0 0 0 0 0 0 0 0 0 127 0" result="hardAlpha"/>
<feOffset dx="5" dy="5"/>
<feGaussianBlur stdDeviation="7.5"/>
<feColorMatrix type="matrix" values="0 0 0 0 0 0 0 0 0 0 0 0 0 0 0 0 0 0 0.1 0"/>
<feBlend mode="normal" in2="BackgroundImageFix" result="effect1_dropShadow"/>
<feBlend mode="normal" in="SourceGraphic" in2="effect1_dropShadow" result="shape"/>
</filter>
</defs>
</svg>
