<svg width="111" height="111" viewBox="0 0 111 111" fill="none" xmlns="http://www.w3.org/2000/svg">
<g filter="url(#filter0_d)">
<rect x="10" y="10" width="81" height="81" rx="4" fill="white"/>
</g>
<g clip-path="url(#clip0)">
<path d="M54.6667 64.2346H52.7667V60.4346H60.5667V66.3346C60.5667 67.4944 61.5069 68.4346 62.6667 68.4346H68C69.1598 68.4346 70.1 67.4944 70.1 66.3346V53.0013C70.1 51.8415 69.1598 50.9013 68 50.9013H67.4333V37.0013V37.0012C67.4311 35.106 65.8953 33.5702 64.0001 33.568H64L36 33.568L35.9999 33.568C34.1047 33.5702 32.5689 35.106 32.5667 37.0012V37.0013V46.9013H32C30.8402 46.9013 29.9 47.8415 29.9 49.0013V66.3346C29.9 67.4944 30.8402 68.4346 32 68.4346H57.3333C57.7567 68.4346 58.1 68.0914 58.1 67.668V67.6679C58.0978 65.7727 56.5619 64.2369 54.6668 64.2346H54.6667ZM46.1 66.3346V65.768H54.6665C55.4234 65.7689 56.1028 66.2172 56.4053 66.9013H46.0158C46.0697 66.7177 46.0981 66.5274 46.1 66.3356V66.3346ZM34.1 46.9013V37.0013C34.1 35.9519 34.9506 35.1013 36 35.1013H64C65.0494 35.1013 65.9 35.9519 65.9 37.0013V50.9013H62.6667C61.5069 50.9013 60.5667 51.8415 60.5667 53.0013V53.568H46.1L46.1 49.0013L46.1 49.0006C46.0978 48.6956 46.0284 48.3953 45.8973 48.1207L47.9775 46.0405C48.4054 45.6283 48.8607 45.1817 49.3111 44.7355C50.1507 43.9036 50.974 43.072 51.5714 42.4651C51.87 42.1616 52.1123 41.9142 52.2718 41.751L52.4459 41.5728L52.4692 41.5488L52.4754 41.5427L52.4766 41.5414L52.4844 41.5333L52.4864 41.5311C52.4929 41.523 52.4746 41.3867 52.3448 41.3904L52.3412 41.3937L52.3404 41.3945L52.3372 41.3977L52.327 41.4082L47.8373 45.8979C47.4693 46.2525 47.1219 46.5813 46.8161 46.862C46.4854 47.1656 46.2049 47.4115 45.9996 47.5731C45.8964 47.6543 45.8155 47.7117 45.7584 47.7445C45.7456 47.7518 45.735 47.7573 45.7265 47.7614C45.5785 47.6013 45.5523 47.4754 45.5385 47.4092L45.5379 47.4066C45.5377 47.4054 45.5374 47.404 45.5371 47.4025C45.534 47.3873 45.5286 47.3608 45.5189 47.3402C45.5129 47.3274 45.499 47.3022 45.4693 47.2857C45.4358 47.267 45.4023 47.27 45.3801 47.2768C45.3603 47.2828 45.3446 47.293 45.3348 47.2999C45.324 47.3076 45.3132 47.3167 45.3029 47.3258C45.2963 47.3316 45.2891 47.3382 45.2813 47.3454L44.8933 47.1015C44.8876 47.0969 44.8811 47.0928 44.8741 47.0895L44.8219 47.0566L44.8105 47.0685C44.5545 46.959 44.279 46.9021 44.0003 46.9013H44H34.1ZM44.9295 47.2001L44.9295 47.2L44.9295 47.2001ZM45.6992 47.7715C45.6993 47.7714 45.7003 47.7712 45.7021 47.771C45.7001 47.7715 45.6992 47.7716 45.6992 47.7715ZM52.4823 41.5355C52.483 41.5348 52.4828 41.535 52.4822 41.5355L52.4823 41.5355ZM44.5667 66.3346C44.5667 66.6476 44.3129 66.9013 44 66.9013H32C31.6871 66.9013 31.4333 66.6476 31.4333 66.3346V65.768H44.5667V66.3346ZM44.5667 64.2346H31.4333V49.0013C31.4333 48.6884 31.6871 48.4346 32 48.4346H44C44.3129 48.4346 44.5667 48.6884 44.5667 49.0013V64.2346ZM46.1 64.2346V60.4346H47.2333V64.2346H46.1ZM48.7667 64.2346V60.4346H51.2333V64.2346H48.7667ZM60.5667 58.9013H46.1V55.1013H60.5667V58.9013ZM68.5667 66.3346C68.5667 66.6476 68.3129 66.9013 68 66.9013H62.6667C62.3537 66.9013 62.1 66.6476 62.1 66.3346V65.768H68.5667V66.3346ZM68.5667 64.2346H62.1V53.0013C62.1 52.6884 62.3537 52.4346 62.6667 52.4346H68C68.3129 52.4346 68.5667 52.6884 68.5667 53.0013V64.2346Z" fill="#3355FF" stroke="#3355FF" stroke-width="0.2"/>
<path d="M50.0131 56.332H50.0065C49.6383 56.3339 49.3413 56.6339 49.3431 57.002C49.345 57.3702 49.645 57.6672 50.0131 57.6654C50.3813 57.6654 50.6798 57.3669 50.6798 56.9987C50.6798 56.6305 50.3813 56.332 50.0131 56.332Z" fill="#3355FF"/>
<path d="M51.3333 36.332H48.6667C48.2985 36.332 48 36.6305 48 36.9987C48 37.3669 48.2985 37.6654 48.6667 37.6654H51.3333C51.7015 37.6654 52 37.3669 52 36.9987C52 36.6305 51.7015 36.332 51.3333 36.332Z" fill="#3355FF"/>
</g>
<defs>
<filter id="filter0_d" x="0" y="0" width="111" height="111" filterUnits="userSpaceOnUse" color-interpolation-filters="sRGB">
<feFlood flood-opacity="0" result="BackgroundImageFix"/>
<feColorMatrix in="SourceAlpha" type="matrix" values="0 0 0 0 0 0 0 0 0 0 0 0 0 0 0 0 0 0 127 0" result="hardAlpha"/>
<feOffset dx="5" dy="5"/>
<feGaussianBlur stdDeviation="7.5"/>
<feColorMatrix type="matrix" values="0 0 0 0 0 0 0 0 0 0 0 0 0 0 0 0 0 0 0.1 0"/>
<feBlend mode="normal" in2="BackgroundImageFix" result="effect1_dropShadow"/>
<feBlend mode="normal" in="SourceGraphic" in2="effect1_dropShadow" result="shape"/>
</filter>
<clipPath id="clip0">
<rect width="40" height="40" fill="white" transform="translate(30 31)"/>
</clipPath>
</defs>
</svg>
